<?xml version="1.0" standalone="yes"?>

<svg version="1.1" viewBox="0.0 0.0 1920.0 1080.0" fill="none" stroke="none" stroke-linecap="square" stroke-miterlimit="10" xmlns="http://www.w3.org/2000/svg" xmlns:xlink="http://www.w3.org/1999/xlink"><clipPath id="g3871cbe7c_2575.0"><path d="m0 0l1920.0 0l0 1080.0l-1920.0 0l0 -1080.0z" clip-rule="nonzero"></path></clipPath><g clip-path="url(#g3871cbe7c_2575.0)"><path fill="#f4b400" d="m0 0l1920.0 0l0 1080.0l-1920.0 0z" fill-rule="nonzero"></path><path fill="#000000" fill-opacity="0.0" d="m82.0 150.0l1477.9841 0l0 186.01575l-1477.9841 0z" fill-rule="nonzero"></path><path fill="#ffffff" d="m166.0 195.32187l0 51.578125q0 12.4375 -8.078125 19.015625q-8.078125 6.578125 -21.078125 6.578125q-12.546875 0 -20.359375 -6.609375q-7.796875 -6.609375 -7.796875 -18.984375l0 -51.578125l10.28125 0l0 51.578125q0 8.609375 4.90625 13.078125q4.921875 4.46875 12.96875 4.46875q8.46875 0 13.65625 -4.46875q5.203125 -4.46875 5.203125 -13.078125l0 -51.578125l10.296875 0zm27.446075 76.078125l-10.34375 0l0 -76.078125l10.34375 0l0 76.078125zm99.56738 -24.34375l0.09375 0.3125q0.21875 10.703125 -7.515625 17.921875q-7.734375 7.203125 -20.4375 7.203125q-12.90625 0 -21.03125 -9.140625q-8.109375 -9.140625 -8.109375 -23.203125l0 -13.53125q0 -14.046875 8.109375 -23.21875q8.125 -9.171875 21.03125 -9.171875q12.90625 0 20.53125 6.875q7.640625 6.875 7.421875 18.203125l-0.09375 0.3125l-9.875 0q0 -7.984375 -4.703125 -12.625q-4.703125 -4.65625 -13.28125 -4.65625q-8.609375 0 -13.734375 6.953125q-5.125 6.9375 -5.125 17.234375l0 13.625q0 10.40625 5.125 17.359375q5.125 6.9375 13.734375 6.9375q8.578125 0 13.28125 -4.625q4.703125 -4.625 4.703125 -12.765625l9.875 0zm9.436127 -4.4375q0 -12.546875 6.796875 -20.671875q6.796875 -8.125 18.4375 -8.125q11.765625 0 18.578125 8.109375q6.8125 8.09375 6.8125 20.6875l0 1.140625q0 12.640625 -6.796875 20.6875q-6.78125 8.046875 -18.484375 8.046875q-11.703125 0 -18.53125 -8.0625q-6.8125 -8.078125 -6.8125 -20.671875l0 -1.140625zm10.296875 1.140625q0 8.984375 3.78125 14.84375q3.796875 5.84375 11.265625 5.84375q7.375 0 11.1875 -5.84375q3.8125 -5.859375 3.8125 -14.84375l0 -1.140625q0 -8.890625 -3.84375 -14.796875q-3.84375 -5.90625 -11.265625 -5.90625q-7.359375 0 -11.15625 5.90625q-3.78125 5.90625 -3.78125 14.796875l0 1.140625zm61.93158 -28.890625l0.71875 7.421875q2.78125 -4.03125 7.03125 -6.25q4.265625 -2.21875 9.90625 -2.21875q5.640625 0 9.6875 2.625q4.046875 2.609375 6.09375 7.828125q2.65625 -4.8125 7.046875 -7.625q4.390625 -2.828125 10.234375 -2.828125q8.625 0 13.640625 5.9375q5.015625 5.921875 5.015625 17.84375l0 33.796875l-10.296875 0l0 -33.90625q0 -8.359375 -2.875 -11.828125q-2.859375 -3.484375 -8.5625 -3.484375q-5.28125 0 -8.546875 3.65625q-3.265625 3.65625 -3.828125 9.25l0 0.421875l0 35.890625l-10.34375 0l0 -33.90625q0 -7.9375 -2.953125 -11.625q-2.953125 -3.6875 -8.5 -3.6875q-4.703125 0 -7.734375 1.9375q-3.015625 1.9375 -4.640625 5.4375l0 41.84375l-10.296875 0l0 -56.53125l9.203125 0zm132.18881 30.40625q0 12.234375 -5.859375 19.734375q-5.84375 7.484375 -16.140625 7.484375q-5.21875 0 -9.171875 -1.75q-3.9375 -1.75 -6.703125 -5.25l0 27.640625l-10.296875 0l0 -78.265625l7.890625 0l1.625 7.3125q2.765625 -4.078125 6.890625 -6.21875q4.125 -2.140625 9.609375 -2.140625q10.5 0 16.328125 8.34375q5.828125 8.328125 5.828125 22.015625l0 1.09375zm-10.296875 -1.09375q0 -9.609375 -3.78125 -15.796875q-3.78125 -6.203125 -11.15625 -6.203125q-4.4375 0 -7.578125 2.015625q-3.125 2.015625 -5.0625 5.515625l0 27.3125q1.9375 3.5 5.0625 5.46875q3.140625 1.953125 7.6875 1.953125q7.3125 0 11.0625 -5.34375q3.765625 -5.359375 3.765625 -13.828125l0 -1.09375zm20.33786 -1.5625q0 -12.546875 6.796875 -20.671875q6.796875 -8.125 18.4375 -8.125q11.765625 0 18.578125 8.109375q6.8125 8.09375 6.8125 20.6875l0 1.140625q0 12.640625 -6.796875 20.6875q-6.78125 8.046875 -18.484375 8.046875q-11.703125 0 -18.53125 -8.0625q-6.8125 -8.078125 -6.8125 -20.671875l0 -1.140625zm10.296875 1.140625q0 8.984375 3.78125 14.84375q3.796875 5.84375 11.265625 5.84375q7.375 0 11.1875 -5.84375q3.8125 -5.859375 3.8125 -14.84375l0 -1.140625q0 -8.890625 -3.84375 -14.796875q-3.84375 -5.90625 -11.265625 -5.90625q-7.359375 0 -11.15625 5.90625q-3.78125 5.90625 -3.78125 14.796875l0 1.140625zm61.93152 -28.890625l0.71875 8.40625q2.828125 -4.484375 7.078125 -6.96875q4.265625 -2.484375 9.703125 -2.484375q9.140625 0 14.15625 5.359375q5.015625 5.359375 5.015625 16.53125l0 35.6875l-10.296875 0l0 -35.46875q0 -7.484375 -2.953125 -10.609375q-2.953125 -3.140625 -9.0 -3.140625q-4.453125 0 -7.875 2.140625q-3.421875 2.140625 -5.453125 5.859375l0 41.21875l-10.296875 0l0 -56.53125l9.203125 0zm74.884766 57.625q-11.8125 0 -18.796875 -7.859375q-6.96875 -7.859375 -6.96875 -20.40625l0 -2.296875q0 -12.0625 7.1875 -20.078125q7.1875 -8.03125 17.0 -8.03125q11.4375 0 17.28125 6.90625q5.859375 6.890625 5.859375 18.390625l0 6.421875l-36.671875 0l-0.15625 0.265625q0.15625 8.140625 4.125 13.390625q3.96875 5.25 11.140625 5.25q5.21875 0 9.15625 -1.484375q3.953125 -1.484375 6.828125 -4.109375l4.015625 6.6875q-3.03125 2.984375 -8.0 4.96875q-4.953125 1.984375 -12.0 1.984375zm-1.578125 -50.578125q-5.171875 0 -8.828125 4.375q-3.65625 4.359375 -4.484375 10.9375l0.09375 0.265625l26.078125 0l0 -1.359375q0 -6.0625 -3.25 -10.140625q-3.234375 -4.078125 -9.609375 -4.078125zm43.713257 -7.046875l0.71875 8.40625q2.828125 -4.484375 7.078125 -6.96875q4.265625 -2.484375 9.703125 -2.484375q9.140625 0 14.15625 5.359375q5.015625 5.359375 5.015625 16.53125l0 35.6875l-10.296875 0l0 -35.46875q0 -7.484375 -2.953125 -10.609375q-2.953125 -3.140625 -9.0 -3.140625q-4.453125 0 -7.875 2.140625q-3.421875 2.140625 -5.453125 5.859375l0 41.21875l-10.296875 0l0 -56.53125l9.203125 0zm65.009705 -13.640625l0 13.640625l10.703125 0l0 7.625l-10.703125 0l0 34.328125q0 3.96875 1.640625 5.59375q1.640625 1.625 4.359375 1.625q0.890625 0 1.953125 -0.203125q1.078125 -0.21875 1.921875 -0.53125l1.34375 7.046875q-1.140625 0.9375 -3.359375 1.53125q-2.21875 0.609375 -4.46875 0.609375q-6.265625 0 -9.984375 -3.78125q-3.703125 -3.796875 -3.703125 -11.890625l0 -34.328125l-8.984375 0l0 -7.625l8.984375 0l0 -13.640625l10.296875 0zm56.137024 55.171875q0 -3.390625 -2.59375 -5.578125q-2.578125 -2.203125 -9.78125 -3.828125q-10.296875 -2.234375 -15.5 -6.078125q-5.1875 -3.84375 -5.1875 -10.484375q0 -6.890625 5.84375 -11.75q5.859375 -4.859375 15.265625 -4.859375q9.875 0 15.6875 5.078125q5.828125 5.0625 5.578125 12.328125l-0.109375 0.3125l-9.828125 0q0 -3.71875 -3.109375 -6.671875q-3.109375 -2.953125 -8.21875 -2.953125q-5.484375 0 -8.15625 2.40625q-2.65625 2.40625 -2.65625 5.796875q0 3.34375 2.34375 5.28125q2.34375 1.9375 9.5625 3.453125q10.703125 2.296875 15.921875 6.25q5.234375 3.9375 5.234375 10.578125q0 7.515625 -6.09375 12.171875q-6.078125 4.640625 -15.90625 4.640625q-10.8125 0 -17.03125 -5.484375q-6.21875 -5.484375 -5.90625 -12.796875l0.109375 -0.3125l9.828125 0q0.265625 5.484375 4.078125 8.015625q3.8125 2.53125 8.921875 2.53125q5.484375 0 8.59375 -2.21875q3.109375 -2.21875 3.109375 -5.828125z" fill-rule="nonzero"></path><path fill="#ffffff" d="m143.21875 399.4q-0.53125 -2.5625 -0.8125 -4.515625q-0.28125 -1.96875 -0.34375 -3.953125q-2.875 4.078125 -7.5 6.828125q-4.625 2.734375 -9.953125 2.734375q-8.828125 0 -13.453125 -4.515625q-4.625 -4.515625 -4.625 -12.46875q0 -8.09375 6.5625 -12.65625q6.5625 -4.578125 17.796875 -4.578125l11.171875 0l0 -5.59375q0 -4.953125 -3.03125 -7.859375q-3.03125 -2.90625 -8.5625 -2.90625q-4.96875 0 -8.078125 2.546875q-3.109375 2.53125 -3.109375 6.078125l-9.8125 0l-0.109375 -0.3125q-0.3125 -6.15625 5.828125 -11.28125q6.140625 -5.125 15.859375 -5.125q9.609375 0 15.453125 4.890625q5.859375 4.875 5.859375 14.078125l0 27.21875q0 3.03125 0.3125 5.859375q0.3125 2.8125 1.15625 5.53125l-10.609375 0zm-17.09375 -7.53125q5.59375 0 10.078125 -2.859375q4.5 -2.875 5.859375 -6.59375l0 -9.1875l-11.546875 0q-6.21875 0 -9.953125 3.140625q-3.734375 3.125 -3.734375 7.359375q0 3.765625 2.34375 5.953125q2.359375 2.1875 6.953125 2.1875zm50.18698 -49.0l0.71875 8.40625q2.828125 -4.484375 7.078125 -6.96875q4.265625 -2.484375 9.703125 -2.484375q9.140625 0 14.15625 5.359375q5.015625 5.359375 5.015625 16.53125l0 35.6875l-10.296875 0l0 -35.46875q0 -7.484375 -2.953125 -10.609375q-2.953125 -3.140625 -9.0 -3.140625q-4.453125 0 -7.875 2.140625q-3.421875 2.140625 -5.453125 5.859375l0 41.21875l-10.296875 0l0 -56.53125l9.203125 0zm49.072205 29.3125q0 -13.640625 5.8125 -22.0q5.828125 -8.359375 16.328125 -8.359375q4.96875 0 8.8125 1.828125q3.84375 1.828125 6.5625 5.328125l0 -31.078125l10.28125 0l0 81.5l-8.40625 0l-1.203125 -6.953125q-2.765625 3.96875 -6.796875 6.015625q-4.015625 2.03125 -9.34375 2.03125q-10.34375 0 -16.203125 -7.484375q-5.84375 -7.5 -5.84375 -19.734375l0 -1.09375zm10.28125 1.09375q0 8.5625 3.5 13.71875q3.5 5.140625 10.875 5.140625q4.59375 0 7.71875 -2.078125q3.140625 -2.09375 5.140625 -5.859375l0 -26.390625q-2.0 -3.5 -5.15625 -5.5625q-3.15625 -2.0625 -7.59375 -2.0625q-7.421875 0 -10.953125 6.125q-3.53125 6.109375 -3.53125 15.875l0 1.09375zm91.4238 -4.390625l0 30.515625l-10.296875 0l0 -76.078125l29.09375 0q12.171875 0 18.90625 6.28125q6.75 6.265625 6.75 16.5q0 10.40625 -6.75 16.59375q-6.734375 6.1875 -18.90625 6.1875l-18.796875 0zm0 -8.046875l18.796875 0q7.734375 0 11.546875 -4.140625q3.8125 -4.15625 3.8125 -10.484375q0 -6.328125 -3.84375 -10.546875q-3.828125 -4.234375 -11.515625 -4.234375l-18.796875 0l0 29.40625zm90.842285 38.5625q-0.53125 -2.5625 -0.8125 -4.515625q-0.28125 -1.96875 -0.34375 -3.953125q-2.875 4.078125 -7.5 6.828125q-4.625 2.734375 -9.953125 2.734375q-8.828125 0 -13.453125 -4.515625q-4.625 -4.515625 -4.625 -12.46875q0 -8.09375 6.5625 -12.65625q6.5625 -4.578125 17.796875 -4.578125l11.171875 0l0 -5.59375q0 -4.953125 -3.03125 -7.859375q-3.03125 -2.90625 -8.5625 -2.90625q-4.96875 0 -8.078125 2.546875q-3.109375 2.53125 -3.109375 6.078125l-9.8125 0l-0.109375 -0.3125q-0.3125 -6.15625 5.828125 -11.28125q6.140625 -5.125 15.859375 -5.125q9.609375 0 15.453125 4.890625q5.859375 4.875 5.859375 14.078125l0 27.21875q0 3.03125 0.3125 5.859375q0.3125 2.8125 1.15625 5.53125l-10.609375 0zm-17.09375 -7.53125q5.59375 0 10.078125 -2.859375q4.5 -2.875 5.859375 -6.59375l0 -9.1875l-11.546875 0q-6.21875 0 -9.953125 3.140625q-3.734375 3.125 -3.734375 7.359375q0 3.765625 2.34375 5.953125q2.359375 2.1875 6.953125 2.1875zm54.577606 -62.640625l0 13.640625l10.703125 0l0 7.625l-10.703125 0l0 34.328125q0 3.96875 1.640625 5.59375q1.640625 1.625 4.359375 1.625q0.890625 0 1.953125 -0.203125q1.078125 -0.21875 1.921875 -0.53125l1.34375 7.046875q-1.140625 0.9375 -3.359375 1.53125q-2.21875 0.609375 -4.46875 0.609375q-6.265625 0 -9.984375 -3.78125q-3.703125 -3.796875 -3.703125 -11.890625l0 -34.328125l-8.984375 0l0 -7.625l8.984375 0l0 -13.640625l10.296875 0zm36.8714 0l0 13.640625l10.703125 0l0 7.625l-10.703125 0l0 34.328125q0 3.96875 1.640625 5.59375q1.640625 1.625 4.359375 1.625q0.890625 0 1.953125 -0.203125q1.078125 -0.21875 1.921875 -0.53125l1.34375 7.046875q-1.140625 0.9375 -3.359375 1.53125q-2.21875 0.609375 -4.46875 0.609375q-6.265625 0 -9.984375 -3.78125q-3.703125 -3.796875 -3.703125 -11.890625l0 -34.328125l-8.984375 0l0 -7.625l8.984375 0l0 -13.640625l10.296875 0zm46.74643 71.265625q-11.8125 0 -18.796875 -7.859375q-6.96875 -7.859375 -6.96875 -20.40625l0 -2.296875q0 -12.0625 7.1875 -20.078125q7.1875 -8.03125 17.0 -8.03125q11.4375 0 17.28125 6.90625q5.859375 6.890625 5.859375 18.390625l0 6.421875l-36.671875 0l-0.15625 0.265625q0.15625 8.140625 4.125 13.390625q3.96875 5.25 11.140625 5.25q5.21875 0 9.15625 -1.484375q3.953125 -1.484375 6.828125 -4.109375l4.015625 6.6875q-3.03125 2.984375 -8.0 4.96875q-4.953125 1.984375 -12.0 1.984375zm-1.578125 -50.578125q-5.171875 0 -8.828125 4.375q-3.65625 4.359375 -4.484375 10.9375l0.09375 0.265625l26.078125 0l0 -1.359375q0 -6.0625 -3.25 -10.140625q-3.234375 -4.078125 -9.609375 -4.078125zm61.26007 2.046875l-5.28125 -0.3125q-4.0625 0 -6.859375 1.9375q-2.796875 1.921875 -4.3125 5.421875l0 40.390625l-10.296875 0l0 -56.53125l9.203125 0l0.984375 8.25q2.40625 -4.390625 5.921875 -6.84375q3.53125 -2.453125 8.140625 -2.453125q1.140625 0 2.1875 0.1875q1.046875 0.1875 1.71875 0.390625l-1.40625 9.5625zm19.012024 -9.09375l0.71875 8.40625q2.828125 -4.484375 7.078125 -6.96875q4.265625 -2.484375 9.703125 -2.484375q9.140625 0 14.15625 5.359375q5.015625 5.359375 5.015625 16.53125l0 35.6875l-10.296875 0l0 -35.46875q0 -7.484375 -2.953125 -10.609375q-2.953125 -3.140625 -9.0 -3.140625q-4.453125 0 -7.875 2.140625q-3.421875 2.140625 -5.453125 5.859375l0 41.21875l-10.296875 0l0 -56.53125l9.203125 0zm84.27539 41.53125q0 -3.390625 -2.59375 -5.578125q-2.578125 -2.203125 -9.78125 -3.828125q-10.296875 -2.234375 -15.5 -6.078125q-5.1875 -3.84375 -5.1875 -10.484375q0 -6.890625 5.84375 -11.75q5.859375 -4.859375 15.265625 -4.859375q9.875 0 15.6875 5.078125q5.828125 5.0625 5.578125 12.328125l-0.109375 0.3125l-9.828125 0q0 -3.71875 -3.109375 -6.671875q-3.109375 -2.953125 -8.21875 -2.953125q-5.484375 0 -8.15625 2.40625q-2.65625 2.40625 -2.65625 5.796875q0 3.34375 2.34375 5.28125q2.34375 1.9375 9.5625 3.453125q10.703125 2.296875 15.921875 6.25q5.234375 3.9375 5.234375 10.578125q0 7.515625 -6.09375 12.171875q-6.078125 4.640625 -15.90625 4.640625q-10.8125 0 -17.03125 -5.484375q-6.21875 -5.484375 -5.90625 -12.796875l0.109375 -0.3125l9.828125 0q0.265625 5.484375 4.078125 8.015625q3.8125 2.53125 8.921875 2.53125q5.484375 0 8.59375 -2.21875q3.109375 -2.21875 3.109375 -5.828125z" fill-rule="nonzero"></path></g></svg>

