<?xml version="1.0" standalone="yes"?>

<svg version="1.1" viewBox="0.0 0.0 1920.0 1080.0" fill="none" stroke="none" stroke-linecap="square" stroke-miterlimit="10" xmlns="http://www.w3.org/2000/svg" xmlns:xlink="http://www.w3.org/1999/xlink"><clipPath id="g385ae2f82_041.0"><path d="m0 0l1920.0 0l0 1080.0l-1920.0 0l0 -1080.0z" clip-rule="nonzero"></path></clipPath><g clip-path="url(#g385ae2f82_041.0)"><path fill="#4285f4" d="m0 0l1920.0 0l0 1080.0l-1920.0 0z" fill-rule="nonzero"></path><path fill="#000000" fill-opacity="0.0" d="m82.0 150.0l1477.9841 0l0 186.01575l-1477.9841 0z" fill-rule="nonzero"></path><path fill="#ffffff" d="m123.578125 195.32187l24.234375 61.8125l0.3125 0l24.25 -61.8125l13.15625 0l0 76.078125l-10.296875 0l0 -30.09375l1.046875 -30.9375l-0.25 -0.046875l-24.671875 61.078125l-6.84375 0l-24.546875 -60.921875l-0.265625 0.0625l1.0 30.765625l0 30.09375l-10.296875 0l0 -76.078125l13.171875 0zm113.32939 76.078125q-0.53125 -2.5625 -0.8125 -4.515625q-0.28125 -1.96875 -0.34375 -3.953125q-2.875 4.078125 -7.5 6.828125q-4.625 2.734375 -9.953125 2.734375q-8.828125 0 -13.453125 -4.515625q-4.625 -4.515625 -4.625 -12.46875q0 -8.09375 6.5625 -12.65625q6.5625 -4.578125 17.796875 -4.578125l11.171875 0l0 -5.59375q0 -4.953125 -3.03125 -7.859375q-3.03125 -2.90625 -8.5625 -2.90625q-4.96875 0 -8.078125 2.546875q-3.109375 2.53125 -3.109375 6.078125l-9.8125 0l-0.109375 -0.3125q-0.3125 -6.15625 5.828125 -11.28125q6.140625 -5.125 15.859375 -5.125q9.609375 0 15.453125 4.890625q5.859375 4.875 5.859375 14.078125l0 27.21875q0 3.03125 0.3125 5.859375q0.3125 2.8125 1.15625 5.53125l-10.609375 0zm-17.09375 -7.53125q5.59375 0 10.078125 -2.859375q4.5 -2.875 5.859375 -6.59375l0 -9.1875l-11.546875 0q-6.21875 0 -9.953125 3.140625q-3.734375 3.125 -3.734375 7.359375q0 3.765625 2.34375 5.953125q2.359375 2.1875 6.953125 2.1875zm54.57759 -62.640625l0 13.640625l10.703125 0l0 7.625l-10.703125 0l0 34.328125q0 3.96875 1.640625 5.59375q1.640625 1.625 4.359375 1.625q0.890625 0 1.953125 -0.203125q1.078125 -0.21875 1.921875 -0.53125l1.34375 7.046875q-1.140625 0.9375 -3.359375 1.53125q-2.21875 0.609375 -4.46875 0.609375q-6.265625 0 -9.984375 -3.78125q-3.703125 -3.796875 -3.703125 -11.890625l0 -34.328125l-8.98436 0l0 -7.625l8.98436 0l0 -13.640625l10.296875 0zm46.7464 71.265625q-11.8125 0 -18.796875 -7.859375q-6.96875 -7.859375 -6.96875 -20.40625l0 -2.296875q0 -12.0625 7.1875 -20.078125q7.1875 -8.03125 17.0 -8.03125q11.4375 0 17.28125 6.90625q5.859375 6.890625 5.859375 18.390625l0 6.421875l-36.671875 0l-0.15625 0.265625q0.15625 8.140625 4.125 13.390625q3.96875 5.25 11.140625 5.25q5.21875 0 9.15625 -1.484375q3.953125 -1.484375 6.828125 -4.109375l4.015625 6.6875q-3.03125 2.984375 -8.0 4.96875q-4.953125 1.984375 -12.0 1.984375zm-1.578125 -50.578125q-5.171875 0 -8.828125 4.375q-3.65625 4.359375 -4.484375 10.9375l0.09375 0.265625l26.078125 0l0 -1.359375q0 -6.0625 -3.25 -10.140625q-3.234375 -4.078125 -9.609375 -4.078125zm61.26013 2.046875l-5.28125 -0.3125q-4.0625 0 -6.859375 1.9375q-2.796875 1.921875 -4.3125 5.421875l0 40.390625l-10.296875 0l0 -56.53125l9.203125 0l0.984375 8.25q2.40625 -4.390625 5.921875 -6.84375q3.53125 -2.453125 8.140625 -2.453125q1.140625 0 2.1875 0.1875q1.046875 0.1875 1.71875 0.390625l-1.40625 9.5625zm20.93393 47.4375l-10.28125 0l0 -56.53125l10.28125 0l0 56.53125zm0 -71.0l-10.28125 0l0 -10.5l10.28125 0l0 10.5zm50.497375 71.0q-0.53125 -2.5625 -0.8125 -4.515625q-0.28125 -1.96875 -0.34375 -3.953125q-2.875 4.078125 -7.5 6.828125q-4.625 2.734375 -9.953125 2.734375q-8.828125 0 -13.453125 -4.515625q-4.625 -4.515625 -4.625 -12.46875q0 -8.09375 6.5625 -12.65625q6.5625 -4.578125 17.796875 -4.578125l11.171875 0l0 -5.59375q0 -4.953125 -3.03125 -7.859375q-3.03125 -2.90625 -8.5625 -2.90625q-4.96875 0 -8.078125 2.546875q-3.109375 2.53125 -3.109375 6.078125l-9.8125 0l-0.109375 -0.3125q-0.3125 -6.15625 5.828125 -11.28125q6.140625 -5.125 15.859375 -5.125q9.609375 0 15.453125 4.890625q5.859375 4.875 5.859375 14.078125l0 27.21875q0 3.03125 0.3125 5.859375q0.3125 2.8125 1.15625 5.53125l-10.609375 0zm-17.09375 -7.53125q5.59375 0 10.078125 -2.859375q4.5 -2.875 5.859375 -6.59375l0 -9.1875l-11.546875 0q-6.21875 0 -9.953125 3.140625q-3.734375 3.125 -3.734375 7.359375q0 3.765625 2.34375 5.953125q2.359375 2.1875 6.953125 2.1875zm52.108856 7.53125l-10.28125 0l0 -81.5l10.28125 0l0 81.5zm53.380188 0l-10.28125 0l0 -56.53125l10.28125 0l0 56.53125zm0 -71.0l-10.28125 0l0 -10.5l10.28125 0l0 10.5zm48.60675 56.0q0 -3.390625 -2.59375 -5.578125q-2.578125 -2.203125 -9.78125 -3.828125q-10.296875 -2.234375 -15.5 -6.078125q-5.1875 -3.84375 -5.1875 -10.484375q0 -6.890625 5.84375 -11.75q5.859375 -4.859375 15.265625 -4.859375q9.875 0 15.6875 5.078125q5.828125 5.0625 5.578125 12.328125l-0.109375 0.3125l-9.828125 0q0 -3.71875 -3.109375 -6.671875q-3.109375 -2.953125 -8.21875 -2.953125q-5.484375 0 -8.15625 2.40625q-2.65625 2.40625 -2.65625 5.796875q0 3.34375 2.34375 5.28125q2.34375 1.9375 9.5625 3.453125q10.703125 2.296875 15.921875 6.25q5.234375 3.9375 5.234375 10.578125q0 7.515625 -6.09375 12.171875q-6.078125 4.640625 -15.90625 4.640625q-10.8125 0 -17.03125 -5.484375q-6.21875 -5.484375 -5.90625 -12.796875l0.109375 -0.3125l9.828125 0q0.265625 5.484375 4.078125 8.015625q3.8125 2.53125 8.921875 2.53125q5.484375 0 8.59375 -2.21875q3.109375 -2.21875 3.109375 -5.828125zm63.018005 -55.171875l0 13.640625l10.703125 0l0 7.625l-10.703125 0l0 34.328125q0 3.96875 1.640625 5.59375q1.640625 1.625 4.359375 1.625q0.890625 0 1.953125 -0.203125q1.078125 -0.21875 1.921875 -0.53125l1.34375 7.046875q-1.140625 0.9375 -3.359375 1.53125q-2.21875 0.609375 -4.46875 0.609375q-6.265625 0 -9.984375 -3.78125q-3.703125 -3.796875 -3.703125 -11.890625l0 -34.328125l-8.984375 0l0 -7.625l8.984375 0l0 -13.640625l10.296875 0zm33.574524 21.21875q2.921875 -4.078125 7.171875 -6.34375q4.265625 -2.28125 9.4375 -2.28125q9.046875 0 14.078125 5.4375q5.046875 5.4375 5.046875 16.71875l0 35.421875l-10.296875 0l0 -35.53125q0 -7.0 -3.0 -10.34375q-3.0 -3.34375 -8.953125 -3.34375q-4.296875 0 -7.765625 2.015625q-3.46875 2.015625 -5.71875 5.453125l0 41.75l-10.296875 0l0 -81.5l10.296875 0l0 32.546875zm73.790955 50.046875q-11.8125 0 -18.796875 -7.859375q-6.96875 -7.859375 -6.96875 -20.40625l0 -2.296875q0 -12.0625 7.1875 -20.078125q7.1875 -8.03125 17.0 -8.03125q11.4375 0 17.28125 6.90625q5.859375 6.890625 5.859375 18.390625l0 6.421875l-36.671875 0l-0.15625 0.265625q0.15625 8.140625 4.125 13.390625q3.96875 5.25 11.140625 5.25q5.21875 0 9.15625 -1.484375q3.953125 -1.484375 6.828125 -4.109375l4.015625 6.6875q-3.03125 2.984375 -8.0 4.96875q-4.953125 1.984375 -12.0 1.984375zm-1.578125 -50.578125q-5.171875 0 -8.828125 4.375q-3.65625 4.359375 -4.484375 10.9375l0.09375 0.265625l26.078125 0l0 -1.359375q0 -6.0625 -3.25 -10.140625q-3.234375 -4.078125 -9.609375 -4.078125zm70.22107 -7.046875l0.71875 7.421875q2.78125 -4.03125 7.03125 -6.25q4.265625 -2.21875 9.90625 -2.21875q5.640625 0 9.6875 2.625q4.046875 2.609375 6.09375 7.828125q2.65625 -4.8125 7.046875 -7.625q4.390625 -2.828125 10.234375 -2.828125q8.625 0 13.640625 5.9375q5.015625 5.921875 5.015625 17.84375l0 33.796875l-10.296875 0l0 -33.90625q0 -8.359375 -2.875 -11.828125q-2.859375 -3.484375 -8.5625 -3.484375q-5.28125 0 -8.546875 3.65625q-3.265625 3.65625 -3.828125 9.25l0 0.421875l0 35.890625l-10.34375 0l0 -33.90625q0 -7.9375 -2.953125 -11.625q-2.953125 -3.6875 -8.5 -3.6875q-4.703125 0 -7.734375 1.9375q-3.015625 1.9375 -4.640625 5.4375l0 41.84375l-10.296875 0l0 -56.53125l9.203125 0zm107.48572 57.625q-11.8125 0 -18.796875 -7.859375q-6.96875 -7.859375 -6.96875 -20.40625l0 -2.296875q0 -12.0625 7.1875 -20.078125q7.1875 -8.03125 17.0 -8.03125q11.4375 0 17.28125 6.90625q5.859375 6.890625 5.859375 18.390625l0 6.421875l-36.671875 0l-0.15625 0.265625q0.15625 8.140625 4.125 13.390625q3.96875 5.25 11.140625 5.25q5.21875 0 9.15625 -1.484375q3.953125 -1.484375 6.828125 -4.109375l4.015625 6.6875q-3.03125 2.984375 -8.0 4.96875q-4.953125 1.984375 -12.0 1.984375zm-1.578125 -50.578125q-5.171875 0 -8.828125 4.375q-3.65625 4.359375 -4.484375 10.9375l0.09375 0.265625l26.078125 0l0 -1.359375q0 -6.0625 -3.25 -10.140625q-3.234375 -4.078125 -9.609375 -4.078125zm48.10388 -20.6875l0 13.640625l10.703125 0l0 7.625l-10.703125 0l0 34.328125q0 3.96875 1.640625 5.59375q1.640625 1.625 4.359375 1.625q0.890625 0 1.953125 -0.203125q1.078125 -0.21875 1.921875 -0.53125l1.34375 7.046875q-1.140625 0.9375 -3.359375 1.53125q-2.21875 0.609375 -4.46875 0.609375q-6.265625 0 -9.984375 -3.78125q-3.703125 -3.796875 -3.703125 -11.890625l0 -34.328125l-8.984375 0l0 -7.625l8.984375 0l0 -13.640625l10.296875 0zm58.027588 70.171875q-0.53125 -2.5625 -0.8125 -4.515625q-0.28125 -1.96875 -0.34375 -3.953125q-2.875 4.078125 -7.5 6.828125q-4.625 2.734375 -9.953064 2.734375q-8.828125 0 -13.453125 -4.515625q-4.625 -4.515625 -4.625 -12.46875q0 -8.09375 6.5625 -12.65625q6.5625 -4.578125 17.796814 -4.578125l11.171875 0l0 -5.59375q0 -4.953125 -3.03125 -7.859375q-3.03125 -2.90625 -8.5625 -2.90625q-4.968689 0 -8.078064 2.546875q-3.109375 2.53125 -3.109375 6.078125l-9.8125 0l-0.109375 -0.3125q-0.3125 -6.15625 5.828125 -11.28125q6.140625 -5.125 15.859314 -5.125q9.609375 0 15.453125 4.890625q5.859375 4.875 5.859375 14.078125l0 27.21875q0 3.03125 0.3125 5.859375q0.3125 2.8125 1.15625 5.53125l-10.609375 0zm-17.093689 -7.53125q5.593689 0 10.078064 -2.859375q4.5 -2.875 5.859375 -6.59375l0 -9.1875l-11.546875 0q-6.218689 0 -9.953064 3.140625q-3.734375 3.125 -3.734375 7.359375q0 3.765625 2.34375 5.953125q2.359375 2.1875 6.953125 2.1875zm89.1557 -18.59375q0 12.234375 -5.859375 19.734375q-5.84375 7.484375 -16.140625 7.484375q-5.21875 0 -9.171875 -1.75q-3.9375 -1.75 -6.703125 -5.25l0 27.640625l-10.296875 0l0 -78.265625l7.890625 0l1.625 7.3125q2.765625 -4.078125 6.890625 -6.21875q4.125 -2.140625 9.609375 -2.140625q10.5 0 16.328125 8.34375q5.828125 8.328125 5.828125 22.015625l0 1.09375zm-10.296875 -1.09375q0 -9.609375 -3.78125 -15.796875q-3.78125 -6.203125 -11.15625 -6.203125q-4.4375 0 -7.578125 2.015625q-3.125 2.015625 -5.0625 5.515625l0 27.3125q1.9375 3.5 5.0625 5.46875q3.140625 1.953125 7.6875 1.953125q7.3125 0 11.0625 -5.34375q3.765625 -5.359375 3.765625 -13.828125l0 -1.09375zm33.041016 -21.734375q2.921875 -4.078125 7.171875 -6.34375q4.265625 -2.28125 9.4375 -2.28125q9.046875 0 14.078125 5.4375q5.046875 5.4375 5.046875 16.71875l0 35.421875l-10.296875 0l0 -35.53125q0 -7.0 -3.0 -10.34375q-3.0 -3.34375 -8.953125 -3.34375q-4.296875 0 -7.765625 2.015625q-3.46875 2.015625 -5.71875 5.453125l0 41.75l-10.296875 0l0 -81.5l10.296875 0l0 32.546875zm47.915894 20.171875q0 -12.546875 6.796875 -20.671875q6.796875 -8.125 18.4375 -8.125q11.765625 0 18.578125 8.109375q6.8125 8.09375 6.8125 20.6875l0 1.140625q0 12.640625 -6.796875 20.6875q-6.78125 8.046875 -18.484375 8.046875q-11.703125 0 -18.53125 -8.0625q-6.8125 -8.078125 -6.8125 -20.671875l0 -1.140625zm10.296875 1.140625q0 8.984375 3.78125 14.84375q3.796875 5.84375 11.265625 5.84375q7.375 0 11.1875 -5.84375q3.8125 -5.859375 3.8125 -14.84375l0 -1.140625q0 -8.890625 -3.84375 -14.796875q-3.84375 -5.90625 -11.265625 -5.90625q-7.359375 0 -11.15625 5.90625q-3.78125 5.90625 -3.78125 14.796875l0 1.140625zm79.47839 -19.796875l-5.28125 -0.3125q-4.0625 0 -6.859375 1.9375q-2.796875 1.921875 -4.3125 5.421875l0 40.390625l-10.296875 0l0 -56.53125l9.203125 0l0.984375 8.25q2.40625 -4.390625 5.921875 -6.84375q3.53125 -2.453125 8.140625 -2.453125q1.140625 0 2.1875 0.1875q1.046875 0.1875 1.71875 0.390625l-1.40625 9.5625z" fill-rule="nonzero"></path><path fill="#000000" fill-opacity="0.0" d="m92.95276 316.63254l1307.37 0l0 173.29135l-1307.37 0z" fill-rule="nonzero"></path><path fill="#a4c2f4" d="m132.23401 375.3538l-19.0625 0l-4.3125 11.71875l-6.28125 0l17.59375 -45.5l5.28125 0l17.3125 45.5l-6.28125 0l-4.25 -11.71875zm-17.15625 -5.15625l15.3125 0l-7.5 -20.71875l-0.1875 0l-7.625 20.71875zm54.1875 -16.9375l0.4375 4.4375q1.65625 -2.40625 4.203125 -3.734375q2.546875 -1.328125 5.921875 -1.328125q3.375 0 5.796875 1.5625q2.421875 1.5625 3.640625 4.6875q1.59375 -2.875 4.21875 -4.5625q2.625 -1.6875 6.125 -1.6875q5.15625 0 8.15625 3.546875q3.0 3.546875 3.0 10.671875l0 20.21875l-6.15625 0l0 -20.28125q0 -5.0 -1.71875 -7.078125q-1.71875 -2.078125 -5.125 -2.078125q-3.15625 0 -5.109375 2.1875q-1.953125 2.1875 -2.296875 5.53125l0 0.25l0 21.46875l-6.1875 0l0 -20.28125q0 -4.75 -1.765625 -6.953125q-1.765625 -2.203125 -5.078125 -2.203125q-2.8125 0 -4.625 1.15625q-1.8125 1.15625 -2.78125 3.25l0 25.03125l-6.15625 0l0 -33.8125l5.5 0zm71.21875 33.8125q-0.3125 -1.53125 -0.484375 -2.703125q-0.171875 -1.171875 -0.203125 -2.359375q-1.71875 2.4375 -4.484375 4.078125q-2.765625 1.640625 -5.953125 1.640625q-5.28125 0 -8.046875 -2.703125q-2.765625 -2.703125 -2.765625 -7.453125q0 -4.84375 3.921875 -7.578125q3.921875 -2.734375 10.640625 -2.734375l6.6875 0l0 -3.34375q0 -2.96875 -1.8125 -4.703125q-1.8125 -1.734375 -5.125 -1.734375q-2.96875 0 -4.828125 1.515625q-1.859375 1.515625 -1.859375 3.640625l-5.875 0l-0.0625 -0.1875q-0.1875 -3.6875 3.484375 -6.75q3.671875 -3.0625 9.484375 -3.0625q5.75 0 9.25 2.921875q3.5 2.921875 3.5 8.421875l0 16.28125q0 1.8125 0.1875 3.5q0.1875 1.6875 0.6875 3.3125l-6.34375 0zm-10.21875 -4.5q3.34375 0 6.03125 -1.71875q2.6875 -1.71875 3.5 -3.9375l0 -5.5l-6.90625 0q-3.71875 0 -5.953125 1.875q-2.234375 1.875 -2.234375 4.40625q0 2.25 1.40625 3.5625q1.40625 1.3125 4.15625 1.3125zm32.75 -37.46875l0 8.15625l6.40625 0l0 4.5625l-6.40625 0l0 20.53125q0 2.375 0.984375 3.34375q0.984375 0.96875 2.609375 0.96875q0.53125 0 1.171875 -0.125q0.640625 -0.125 1.140625 -0.3125l0.8125 4.21875q-0.6875 0.5625 -2.015625 0.921875q-1.328125 0.359375 -2.671875 0.359375q-3.75 0 -5.96875 -2.265625q-2.21875 -2.265625 -2.21875 -7.109375l0 -20.53125l-5.375 0l0 -4.5625l5.375 0l0 -8.15625l6.15625 0zm28.03125 42.625q-7.0625 0 -11.234375 -4.703125q-4.171875 -4.703125 -4.171875 -12.203125l0 -1.375q0 -7.21875 4.296875 -12.015625q4.296875 -4.796875 10.171875 -4.796875q6.84375 0 10.34375 4.125q3.5 4.125 3.5 11.0l0 3.84375l-21.9375 0l-0.09375 0.15625q0.09375 4.875 2.46875 8.015625q2.375 3.140625 6.65625 3.140625q3.125 0 5.484375 -0.890625q2.359375 -0.890625 4.078125 -2.453125l2.40625 4.0q-1.8125 1.78125 -4.78125 2.96875q-2.96875 1.1875 -7.1875 1.1875zm-0.9375 -30.25q-3.09375 0 -5.28125 2.609375q-2.1875 2.609375 -2.6875 6.546875l0.0625 0.15625l15.59375 0l0 -0.8125q0 -3.625 -1.9375 -6.0625q-1.9375 -2.4375 -5.75 -2.4375zm36.75 1.21875l-3.15625 -0.1875q-2.4375 0 -4.109375 1.15625q-1.671875 1.15625 -2.578125 3.25l0 24.15625l-6.15625 0l0 -33.8125l5.5 0l0.59375 4.9375q1.4375 -2.625 3.546875 -4.09375q2.109375 -1.46875 4.859375 -1.46875q0.6875 0 1.3125 0.109375q0.625 0.109375 1.03125 0.234375l-0.84375 5.71875zm12.59375 28.375l-6.15625 0l0 -33.8125l6.15625 0l0 33.8125zm0 -42.46875l-6.15625 0l0 -6.28125l6.15625 0l0 6.28125zm30.25 42.46875q-0.3125 -1.53125 -0.484375 -2.703125q-0.171875 -1.171875 -0.203125 -2.359375q-1.71875 2.4375 -4.484375 4.078125q-2.765625 1.640625 -5.953125 1.640625q-5.28125 0 -8.046875 -2.703125q-2.765625 -2.703125 -2.765625 -7.453125q0 -4.84375 3.921875 -7.578125q3.921875 -2.734375 10.640625 -2.734375l6.6875 0l0 -3.34375q0 -2.96875 -1.8125 -4.703125q-1.8125 -1.734375 -5.125 -1.734375q-2.96875 0 -4.828125 1.515625q-1.859375 1.515625 -1.859375 3.640625l-5.875 0l-0.0625 -0.1875q-0.1875 -3.6875 3.484375 -6.75q3.671875 -3.0625 9.484375 -3.0625q5.75 0 9.25 2.921875q3.5 2.921875 3.5 8.421875l0 16.28125q0 1.8125 0.1875 3.5q0.1875 1.6875 0.6875 3.3125l-6.34375 0zm-10.21875 -4.5q3.34375 0 6.03125 -1.71875q2.6875 -1.71875 3.5 -3.9375l0 -5.5l-6.90625 0q-3.71875 0 -5.953125 1.875q-2.234375 1.875 -2.234375 4.40625q0 2.25 1.40625 3.5625q1.40625 1.3125 4.15625 1.3125zm31.28125 4.5l-6.15625 0l0 -48.75l6.15625 0l0 48.75zm30.875 -33.8125l0.4375 4.4375q1.65625 -2.40625 4.203125 -3.734375q2.546875 -1.328125 5.921875 -1.328125q3.375 0 5.796875 1.5625q2.421875 1.5625 3.640625 4.6875q1.59375 -2.875 4.21875 -4.5625q2.625 -1.6875 6.125 -1.6875q5.15625 0 8.15625 3.546875q3.0 3.546875 3.0 10.671875l0 20.21875l-6.15625 0l0 -20.28125q0 -5.0 -1.71875 -7.078125q-1.71875 -2.078125 -5.125 -2.078125q-3.15625 0 -5.109375 2.1875q-1.953125 2.1875 -2.296875 5.53125l0 0.25l0 21.46875l-6.1875 0l0 -20.28125q0 -4.75 -1.765625 -6.953125q-1.765625 -2.203125 -5.078125 -2.203125q-2.8125 0 -4.625 1.15625q-1.8125 1.15625 -2.78125 3.25l0 25.03125l-6.15625 0l0 -33.8125l5.5 0zm64.46875 34.46875q-7.0625 0 -11.234375 -4.703125q-4.171875 -4.703125 -4.171875 -12.203125l0 -1.375q0 -7.21875 4.296875 -12.015625q4.296875 -4.796875 10.171875 -4.796875q6.84375 0 10.34375 4.125q3.5 4.125 3.5 11.0l0 3.84375l-21.9375 0l-0.09375 0.15625q0.09375 4.875 2.46875 8.015625q2.375 3.140625 6.65625 3.140625q3.125 0 5.484375 -0.890625q2.359375 -0.890625 4.078125 -2.453125l2.40625 4.0q-1.8125 1.78125 -4.78125 2.96875q-2.96875 1.1875 -7.1875 1.1875zm-0.9375 -30.25q-3.09375 0 -5.28125 2.609375q-2.1875 2.609375 -2.6875 6.546875l0.0625 0.15625l15.59375 0l0 -0.8125q0 -3.625 -1.9375 -6.0625q-1.9375 -2.4375 -5.75 -2.4375zm28.875 -12.375l0 8.15625l6.40625 0l0 4.5625l-6.40625 0l0 20.53125q0 2.375 0.984375 3.34375q0.984375 0.96875 2.609375 0.96875q0.53125 0 1.171875 -0.125q0.640625 -0.125 1.140625 -0.3125l0.8125 4.21875q-0.6875 0.5625 -2.015625 0.921875q-1.328125 0.359375 -2.671875 0.359375q-3.75 0 -5.96875 -2.265625q-2.21875 -2.265625 -2.21875 -7.109375l0 -20.53125l-5.375 0l0 -4.5625l5.375 0l0 -8.15625l6.15625 0zm34.78125 41.96875q-0.3125 -1.53125 -0.484375 -2.703125q-0.171875 -1.171875 -0.203125 -2.359375q-1.71875 2.4375 -4.484375 4.078125q-2.765625 1.640625 -5.953125 1.640625q-5.28125 0 -8.046875 -2.703125q-2.765625 -2.703125 -2.765625 -7.453125q0 -4.84375 3.921875 -7.578125q3.921875 -2.734375 10.640625 -2.734375l6.6875 0l0 -3.34375q0 -2.96875 -1.8125 -4.703125q-1.8125 -1.734375 -5.125 -1.734375q-2.96875 0 -4.828125 1.515625q-1.859375 1.515625 -1.859375 3.640625l-5.875 0l-0.0625 -0.1875q-0.1875 -3.6875 3.484375 -6.75q3.671875 -3.0625 9.484375 -3.0625q5.75 0 9.25 2.921875q3.5 2.921875 3.5 8.421875l0 16.28125q0 1.8125 0.1875 3.5q0.1875 1.6875 0.6875 3.3125l-6.34375 0zm-10.21875 -4.5q3.34375 0 6.03125 -1.71875q2.6875 -1.71875 3.5 -3.9375l0 -5.5l-6.90625 0q-3.71875 0 -5.953125 1.875q-2.234375 1.875 -2.234375 4.40625q0 2.25 1.40625 3.5625q1.40625 1.3125 4.15625 1.3125zm53.4375 -11.125q0 7.3125 -3.5 11.796875q-3.5 4.484375 -9.65625 4.484375q-3.125 0 -5.484375 -1.046875q-2.359375 -1.046875 -4.015625 -3.140625l0 16.53125l-6.15625 0l0 -46.8125l4.71875 0l0.96875 4.375q1.65625 -2.4375 4.125 -3.71875q2.46875 -1.28125 5.75 -1.28125q6.28125 0 9.765625 4.984375q3.484375 4.984375 3.484375 13.171875l0 0.65625zm-6.15625 -0.65625q0 -5.75 -2.265625 -9.453125q-2.265625 -3.703125 -6.671875 -3.703125q-2.65625 0 -4.53125 1.203125q-1.875 1.203125 -3.03125 3.296875l0 16.34375q1.15625 2.09375 3.03125 3.265625q1.875 1.171875 4.59375 1.171875q4.375 0 6.625 -3.203125q2.25 -3.203125 2.25 -8.265625l0 -0.65625zm19.875 -13.0q1.75 -2.4375 4.296875 -3.796875q2.546875 -1.359375 5.640625 -1.359375q5.40625 0 8.421875 3.25q3.015625 3.25 3.015625 10.0l0 21.1875l-6.15625 0l0 -21.25q0 -4.1875 -1.796875 -6.1875q-1.796875 -2.0 -5.359375 -2.0q-2.5625 0 -4.640625 1.203125q-2.078125 1.203125 -3.421875 3.265625l0 24.96875l-6.15625 0l0 -48.75l6.15625 0l0 19.46875zm28.78125 12.0625q0 -7.5 4.0625 -12.359375q4.0625 -4.859375 11.03125 -4.859375q7.03125 0 11.109375 4.84375q4.078125 4.84375 4.078125 12.375l0 0.6875q0 7.5625 -4.0625 12.375q-4.0625 4.8125 -11.0625 4.8125q-7.0 0 -11.078125 -4.828125q-4.078125 -4.828125 -4.078125 -12.359375l0 -0.6875zm6.15625 0.6875q0 5.375 2.265625 8.875q2.265625 3.5 6.734375 3.5q4.40625 0 6.6875 -3.5q2.28125 -3.5 2.28125 -8.875l0 -0.6875q0 -5.3125 -2.296875 -8.84375q-2.296875 -3.53125 -6.734375 -3.53125q-4.40625 0 -6.671875 3.53125q-2.265625 3.53125 -2.265625 8.84375l0 0.6875zm47.65625 -11.84375l-3.15625 -0.1875q-2.4375 0 -4.109375 1.15625q-1.671875 1.15625 -2.578125 3.25l0 24.15625l-6.15625 0l0 -33.8125l5.5 0l0.59375 4.9375q1.4375 -2.625 3.546875 -4.09375q2.109375 -1.46875 4.859375 -1.46875q0.6875 0 1.3125 0.109375q0.625 0.109375 1.03125 0.234375l-0.84375 5.71875zm28.5 28.375l-6.15625 0l0 -33.8125l6.15625 0l0 33.8125zm0 -42.46875l-6.15625 0l0 -6.28125l6.15625 0l0 6.28125zm29.125 33.5q0 -2.03125 -1.546875 -3.34375q-1.546875 -1.3125 -5.859375 -2.28125q-6.15625 -1.34375 -9.265625 -3.640625q-3.109375 -2.296875 -3.109375 -6.265625q0 -4.125 3.5 -7.03125q3.5 -2.90625 9.125 -2.90625q5.90625 0 9.390625 3.03125q3.484375 3.03125 3.328125 7.375l-0.0625 0.1875l-5.875 0q0 -2.21875 -1.859375 -3.984375q-1.859375 -1.765625 -4.921875 -1.765625q-3.28125 0 -4.875 1.4375q-1.59375 1.4375 -1.59375 3.46875q0 2.0 1.40625 3.15625q1.40625 1.15625 5.71875 2.0625q6.40625 1.375 9.53125 3.734375q3.125 2.359375 3.125 6.328125q0 4.5 -3.640625 7.28125q-3.640625 2.78125 -9.515625 2.78125q-6.46875 0 -10.1875 -3.28125q-3.71875 -3.28125 -3.53125 -7.65625l0.0625 -0.1875l5.875 0q0.15625 3.28125 2.4375 4.796875q2.28125 1.515625 5.34375 1.515625q3.28125 0 5.140625 -1.328125q1.859375 -1.328125 1.859375 -3.484375zm37.84375 -33.0l0 8.15625l6.40625 0l0 4.5625l-6.40625 0l0 20.53125q0 2.375 0.984375 3.34375q0.984375 0.96875 2.609375 0.96875q0.53125 0 1.171875 -0.125q0.640625 -0.125 1.140625 -0.3125l0.8125 4.21875q-0.6875 0.5625 -2.015625 0.921875q-1.328125 0.359375 -2.671875 0.359375q-3.75 0 -5.96875 -2.265625q-2.21875 -2.265625 -2.21875 -7.109375l0 -20.53125l-5.375 0l0 -4.5625l5.375 0l0 -8.15625l6.15625 0zm20.15625 12.6875q1.75 -2.4375 4.296875 -3.796875q2.546875 -1.359375 5.640625 -1.359375q5.40625 0 8.421875 3.25q3.015625 3.25 3.015625 10.0l0 21.1875l-6.15625 0l0 -21.25q0 -4.1875 -1.796875 -6.1875q-1.796875 -2.0 -5.359375 -2.0q-2.5625 0 -4.640625 1.203125q-2.078125 1.203125 -3.421875 3.265625l0 24.96875l-6.15625 0l0 -48.75l6.15625 0l0 19.46875zm44.25 29.9375q-7.0625 0 -11.234375 -4.703125q-4.171875 -4.703125 -4.171875 -12.203125l0 -1.375q0 -7.21875 4.296875 -12.015625q4.296875 -4.796875 10.171875 -4.796875q6.84375 0 10.34375 4.125q3.5 4.125 3.5 11.0l0 3.84375l-21.9375 0l-0.09375 0.15625q0.09375 4.875 2.46875 8.015625q2.375 3.140625 6.65625 3.140625q3.125 0 5.484375 -0.890625q2.359375 -0.890625 4.078125 -2.453125l2.40625 4.0q-1.8125 1.78125 -4.78125 2.96875q-2.96875 1.1875 -7.1875 1.1875zm-0.9375 -30.25q-3.09375 0 -5.28125 2.609375q-2.1875 2.609375 -2.6875 6.546875l0.0625 0.15625l15.59375 0l0 -0.8125q0 -3.625 -1.9375 -6.0625q-1.9375 -2.4375 -5.75 -2.4375zm58.125 24.59375q-1.59375 2.71875 -4.09375 4.1875q-2.5 1.46875 -5.78125 1.46875q-5.53125 0 -8.625 -3.53125q-3.09375 -3.53125 -3.09375 -11.0l0 -19.9375l6.15625 0l0 20.0q0 5.40625 1.59375 7.4375q1.59375 2.03125 4.96875 2.03125q3.28125 0 5.421875 -1.328125q2.140625 -1.328125 3.234375 -3.765625l0 -24.375l6.15625 0l0 33.8125l-5.53125 0l-0.40625 -5.0zm20.40625 -28.8125l0.4375 5.03125q1.6875 -2.6875 4.234375 -4.171875q2.546875 -1.484375 5.796875 -1.484375q5.46875 0 8.46875 3.203125q3.0 3.203125 3.0 9.890625l0 21.34375l-6.15625 0l0 -21.21875q0 -4.46875 -1.765625 -6.34375q-1.765625 -1.875 -5.390625 -1.875q-2.65625 0 -4.703125 1.28125q-2.046875 1.28125 -3.265625 3.5l0 24.65625l-6.15625 0l0 -33.8125l5.5 0zm37.53125 33.8125l-6.15625 0l0 -33.8125l6.15625 0l0 33.8125zm0 -42.46875l-6.15625 0l0 -6.28125l6.15625 0l0 6.28125zm12.03125 42.46875l0 -29.25l-5.28125 0l0 -4.5625l5.28125 0l0 -4.28125q0 -5.40625 2.828125 -8.359375q2.828125 -2.953125 7.890625 -2.953125q1.0625 0 2.140625 0.171875q1.078125 0.171875 2.390625 0.484375l-0.75 4.6875q-0.5625 -0.125 -1.359375 -0.21875q-0.796875 -0.09375 -1.671875 -0.09375q-2.6875 0 -4.0 1.609375q-1.3125 1.609375 -1.3125 4.671875l0 4.28125l7.03125 0l0 4.5625l-7.03125 0l0 29.25l-6.15625 0zm29.875 -12.53125l1.09375 4.25l0.1875 0l8.3125 -25.53125l6.84375 0l-14.21875 39.0q-1.28125 3.40625 -3.671875 5.9375q-2.390625 2.53125 -6.453125 2.53125q-0.75 0 -1.90625 -0.171875q-1.15625 -0.171875 -1.78125 -0.328125l0.625 -4.84375q-0.1875 -0.03125 1.109375 0.0625q1.296875 0.09375 1.640625 0.09375q1.96875 0 3.21875 -1.75q1.25 -1.75 2.09375 -3.875l1.46875 -3.53125l-12.5625 -33.125l6.875 0l7.125 21.28125zm28.5 12.53125l-6.15625 0l0 -33.8125l6.15625 0l0 33.8125zm0 -42.46875l-6.15625 0l0 -6.28125l6.15625 0l0 6.28125zm14.96875 8.65625l0.4375 5.03125q1.6875 -2.6875 4.234375 -4.171875q2.546875 -1.484375 5.796875 -1.484375q5.46875 0 8.46875 3.203125q3.0 3.203125 3.0 9.890625l0 21.34375l-6.15625 0l0 -21.21875q0 -4.46875 -1.765625 -6.34375q-1.765625 -1.875 -5.390625 -1.875q-2.65625 0 -4.703125 1.28125q-2.046875 1.28125 -3.265625 3.5l0 24.65625l-6.15625 0l0 -33.8125l5.5 0zm29.53125 17.53125q0 -8.15625 3.5625 -13.15625q3.5625 -5.0 9.84375 -5.0q3.21875 0 5.65625 1.296875q2.4375 1.296875 4.0625 3.734375l0.75 -4.40625l4.90625 0l0 34.0q0 6.5 -3.78125 9.984375q-3.78125 3.484375 -10.90625 3.484375q-2.4375 0 -5.265625 -0.671875q-2.828125 -0.671875 -4.984375 -1.828125l1.5625 -4.78125q1.65625 0.9375 4.0 1.515625q2.34375 0.578125 4.625 0.578125q4.5 0 6.546875 -2.046875q2.046875 -2.046875 2.046875 -6.234375l0 -3.8125q-1.65625 2.125 -3.96875 3.203125q-2.3125 1.078125 -5.3125 1.078125q-6.21875 0 -9.78125 -4.5q-3.5625 -4.5 -3.5625 -11.78125l0 -0.65625zm6.15625 0.65625q0 5.09375 2.15625 8.1875q2.15625 3.09375 6.5625 3.09375q2.78125 0 4.65625 -1.265625q1.875 -1.265625 3.09375 -3.578125l0 -15.5625q-1.1875 -2.15625 -3.09375 -3.421875q-1.90625 -1.265625 -4.59375 -1.265625q-4.40625 0 -6.59375 3.6875q-2.1875 3.6875 -2.1875 9.46875l0 0.65625zm55.59375 -26.34375l0 8.15625l6.40625 0l0 4.5625l-6.40625 0l0 20.53125q0 2.375 0.984375 3.34375q0.984375 0.96875 2.609375 0.96875q0.53125 0 1.171875 -0.125q0.640625 -0.125 1.140625 -0.3125l0.8125 4.21875q-0.6875 0.5625 -2.015625 0.921875q-1.328125 0.359375 -2.671875 0.359375q-3.75 0 -5.96875 -2.265625q-2.21875 -2.265625 -2.21875 -7.109375l0 -20.53125l-5.375 0l0 -4.5625l5.375 0l0 -8.15625l6.15625 0zm20.15625 12.6875q1.75 -2.4375 4.296875 -3.796875q2.546875 -1.359375 5.640625 -1.359375q5.40625 0 8.421875 3.25q3.015625 3.25 3.015625 10.0l0 21.1875l-6.15625 0l0 -21.25q0 -4.1875 -1.796875 -6.1875q-1.796875 -2.0 -5.359375 -2.0q-2.5625 0 -4.640625 1.203125q-2.078125 1.203125 -3.421875 3.265625l0 24.96875l-6.15625 0l0 -48.75l6.15625 0l0 19.46875zm44.25 29.9375q-7.0625 0 -11.234375 -4.703125q-4.171875 -4.703125 -4.171875 -12.203125l0 -1.375q0 -7.21875 4.296875 -12.015625q4.296875 -4.796875 10.171875 -4.796875q6.84375 0 10.34375 4.125q3.5 4.125 3.5 11.0l0 3.84375l-21.9375 0l-0.09375 0.15625q0.09375 4.875 2.46875 8.015625q2.375 3.140625 6.65625 3.140625q3.125 0 5.484375 -0.890625q2.359375 -0.890625 4.078125 -2.453125l2.40625 4.0q-1.8125 1.78125 -4.78125 2.96875q-2.96875 1.1875 -7.1875 1.1875zm-0.9375 -30.25q-3.09375 0 -5.28125 2.609375q-2.1875 2.609375 -2.6875 6.546875l0.0625 0.15625l15.59375 0l0 -0.8125q0 -3.625 -1.9375 -6.0625q-1.9375 -2.4375 -5.75 -2.4375zm19.3125 12.375q0 -7.5 4.0625 -12.359375q4.0625 -4.859375 11.03125 -4.859375q7.03125 0 11.109375 4.84375q4.078125 4.84375 4.078125 12.375l0 0.6875q0 7.5625 -4.0625 12.375q-4.0625 4.8125 -11.0625 4.8125q-7.0 0 -11.078125 -4.828125q-4.078125 -4.828125 -4.078125 -12.359375l0 -0.6875zm6.15625 0.6875q0 5.375 2.265625 8.875q2.265625 3.5 6.734375 3.5q4.40625 0 6.6875 -3.5q2.28125 -3.5 2.28125 -8.875l0 -0.6875q0 -5.3125 -2.296875 -8.84375q-2.296875 -3.53125 -6.734375 -3.53125q-4.40625 0 -6.671875 3.53125q-2.265625 3.53125 -2.265625 8.84375l0 0.6875zm47.65625 -11.84375l-3.15625 -0.1875q-2.4375 0 -4.109375 1.15625q-1.671875 1.15625 -2.578125 3.25l0 24.15625l-6.15625 0l0 -33.8125l5.5 0l0.59375 4.9375q1.4375 -2.625 3.546875 -4.09375q2.109375 -1.46875 4.859375 -1.46875q0.6875 0 1.3125 0.109375q0.625 0.109375 1.03125 0.234375l-0.84375 5.71875zm16.28125 15.84375l1.09375 4.25l0.1875 0l8.3125 -25.53125l6.84375 0l-14.21875 39.0q-1.28125 3.40625 -3.671875 5.9375q-2.390625 2.53125 -6.453125 2.53125q-0.75 0 -1.90625 -0.171875q-1.15625 -0.171875 -1.78125 -0.328125l0.625 -4.84375q-0.1875 -0.03125 1.109375 0.0625q1.296875 0.09375 1.640625 0.09375q1.96875 0 3.21875 -1.75q1.25 -1.75 2.09375 -3.875l1.46875 -3.53125l-12.5625 -33.125l6.875 0l7.125 21.28125zm36.3125 -4.6875q0 -7.5 4.0625 -12.359375q4.0625 -4.859375 11.03125 -4.859375q7.03125 0 11.109375 4.84375q4.078125 4.84375 4.078125 12.375l0 0.6875q0 7.5625 -4.0625 12.375q-4.0625 4.8125 -11.0625 4.8125q-7.0 0 -11.078125 -4.828125q-4.078125 -4.828125 -4.078125 -12.359375l0 -0.6875zm6.15625 0.6875q0 5.375 2.265625 8.875q2.265625 3.5 6.734375 3.5q4.40625 0 6.6875 -3.5q2.28125 -3.5 2.28125 -8.875l0 -0.6875q0 -5.3125 -2.296875 -8.84375q-2.296875 -3.53125 -6.734375 -3.53125q-4.40625 0 -6.671875 3.53125q-2.265625 3.53125 -2.265625 8.84375l0 0.6875zm34.21875 16.53125l0 -29.25l-5.28125 0l0 -4.5625l5.28125 0l0 -4.28125q0 -5.40625 2.828125 -8.359375q2.828125 -2.953125 7.890625 -2.953125q1.0625 0 2.140625 0.171875q1.078125 0.171875 2.390625 0.484375l-0.75 4.6875q-0.5625 -0.125 -1.359375 -0.21875q-0.796875 -0.09375 -1.671875 -0.09375q-2.6875 0 -4.0 1.609375q-1.3125 1.609375 -1.3125 4.671875l0 4.28125l7.03125 0l0 4.5625l-7.03125 0l0 29.25l-6.15625 0z" fill-rule="nonzero"></path><path fill="#a4c2f4" d="m127.20276 464.07254q-0.3125 -1.53125 -0.484375 -2.703125q-0.171875 -1.171875 -0.203125 -2.359375q-1.71875 2.4375 -4.484375 4.078125q-2.765625 1.640625 -5.953125 1.640625q-5.28125 0 -8.046875 -2.703125q-2.765625 -2.703125 -2.765625 -7.453125q0 -4.84375 3.921875 -7.578125q3.921875 -2.734375 10.640625 -2.734375l6.6875 0l0 -3.34375q0 -2.96875 -1.8125 -4.703125q-1.8125 -1.734375 -5.125 -1.734375q-2.96875 0 -4.828125 1.515625q-1.859375 1.515625 -1.859375 3.640625l-5.875 0l-0.0625 -0.1875q-0.1875 -3.6875 3.484375 -6.75q3.671875 -3.0625 9.484375 -3.0625q5.75 0 9.25 2.921875q3.5 2.921875 3.5 8.421875l0 16.28125q0 1.8125 0.1875 3.5q0.1875 1.6875 0.6875 3.3125l-6.34375 0zm-10.21875 -4.5q3.34375 0 6.03125 -1.71875q2.6875 -1.71875 3.5 -3.9375l0 -5.5l-6.90625 0q-3.71875 0 -5.953125 1.875q-2.234375 1.875 -2.234375 4.40625q0 2.25 1.40625 3.5625q1.40625 1.3125 4.15625 1.3125zm56.53125 -23.875l-3.15625 -0.1875q-2.4375 0 -4.109375 1.15625q-1.671875 1.15625 -2.578125 3.25l0 24.15625l-6.15625 0l0 -33.8125l5.5 0l0.59375 4.9375q1.4375 -2.625 3.546875 -4.09375q2.109375 -1.46875 4.859375 -1.46875q0.6875 0 1.3125 0.109375q0.625 0.109375 1.03125 0.234375l-0.84375 5.71875zm26.71875 28.375q-0.3125 -1.53125 -0.484375 -2.703125q-0.171875 -1.171875 -0.203125 -2.359375q-1.71875 2.4375 -4.484375 4.078125q-2.765625 1.640625 -5.953125 1.640625q-5.28125 0 -8.046875 -2.703125q-2.765625 -2.703125 -2.765625 -7.453125q0 -4.84375 3.921875 -7.578125q3.921875 -2.734375 10.640625 -2.734375l6.6875 0l0 -3.34375q0 -2.96875 -1.8125 -4.703125q-1.8125 -1.734375 -5.125 -1.734375q-2.96875 0 -4.828125 1.515625q-1.859375 1.515625 -1.859375 3.640625l-5.875 0l-0.0625 -0.1875q-0.1875 -3.6875 3.484375 -6.75q3.671875 -3.0625 9.484375 -3.0625q5.75 0 9.25 2.921875q3.5 2.921875 3.5 8.421875l0 16.28125q0 1.8125 0.1875 3.5q0.1875 1.6875 0.6875 3.3125l-6.34375 0zm-10.21875 -4.5q3.34375 0 6.03125 -1.71875q2.6875 -1.71875 3.5 -3.9375l0 -5.5l-6.90625 0q-3.71875 0 -5.953125 1.875q-2.234375 1.875 -2.234375 4.40625q0 2.25 1.40625 3.5625q1.40625 1.3125 4.15625 1.3125zm32.75 -37.46875l0 8.15625l6.40625 0l0 4.5625l-6.40625 0l0 20.53125q0 2.375 0.984375 3.34375q0.984375 0.96875 2.609375 0.96875q0.53125 0 1.171875 -0.125q0.640625 -0.125 1.140625 -0.3125l0.8125 4.21875q-0.6875 0.5625 -2.015625 0.921875q-1.328125 0.359375 -2.671875 0.359375q-3.75 0 -5.96875 -2.265625q-2.21875 -2.265625 -2.21875 -7.109375l0 -20.53125l-5.375 0l0 -4.5625l5.375 0l0 -8.15625l6.15625 0zm20.65625 41.96875l-6.15625 0l0 -33.8125l6.15625 0l0 33.8125zm0 -42.46875l-6.15625 0l0 -6.28125l6.15625 0l0 6.28125zm8.03125 25.25q0 -7.5 4.0625 -12.359375q4.0625 -4.859375 11.03125 -4.859375q7.03125 0 11.109375 4.84375q4.078125 4.84375 4.078125 12.375l0 0.6875q0 7.5625 -4.0625 12.375q-4.0625 4.8125 -11.0625 4.8125q-7.0 0 -11.078125 -4.828125q-4.078125 -4.828125 -4.078125 -12.359375l0 -0.6875zm6.15625 0.6875q0 5.375 2.265625 8.875q2.265625 3.5 6.734375 3.5q4.40625 0 6.6875 -3.5q2.28125 -3.5 2.28125 -8.875l0 -0.6875q0 -5.3125 -2.296875 -8.84375q-2.296875 -3.53125 -6.734375 -3.53125q-4.40625 0 -6.671875 3.53125q-2.265625 3.53125 -2.265625 8.84375l0 0.6875zm37.15625 -17.28125l0.4375 5.03125q1.6875 -2.6875 4.234375 -4.171875q2.546875 -1.484375 5.796875 -1.484375q5.46875 0 8.46875 3.203125q3.0 3.203125 3.0 9.890625l0 21.34375l-6.15625 0l0 -21.21875q0 -4.46875 -1.765625 -6.34375q-1.765625 -1.875 -5.390625 -1.875q-2.65625 0 -4.703125 1.28125q-2.046875 1.28125 -3.265625 3.5l0 24.65625l-6.15625 0l0 -33.8125l5.5 0zm51.65625 33.8125q-0.3125 -1.53125 -0.484375 -2.703125q-0.171875 -1.171875 -0.203125 -2.359375q-1.71875 2.4375 -4.484375 4.078125q-2.765625 1.640625 -5.953125 1.640625q-5.28125 0 -8.046875 -2.703125q-2.765625 -2.703125 -2.765625 -7.453125q0 -4.84375 3.921875 -7.578125q3.921875 -2.734375 10.640625 -2.734375l6.6875 0l0 -3.34375q0 -2.96875 -1.8125 -4.703125q-1.8125 -1.734375 -5.125 -1.734375q-2.96875 0 -4.828125 1.515625q-1.859375 1.515625 -1.859375 3.640625l-5.875 0l-0.0625 -0.1875q-0.1875 -3.6875 3.484375 -6.75q3.671875 -3.0625 9.484375 -3.0625q5.75 0 9.25 2.921875q3.5 2.921875 3.5 8.421875l0 16.28125q0 1.8125 0.1875 3.5q0.1875 1.6875 0.6875 3.3125l-6.34375 0zm-10.21875 -4.5q3.34375 0 6.03125 -1.71875q2.6875 -1.71875 3.5 -3.9375l0 -5.5l-6.90625 0q-3.71875 0 -5.953125 1.875q-2.234375 1.875 -2.234375 4.40625q0 2.25 1.40625 3.5625q1.40625 1.3125 4.15625 1.3125zm31.28125 4.5l-6.15625 0l0 -48.75l6.15625 0l0 48.75zm16.125 0l-6.15625 0l0 -33.8125l6.15625 0l0 33.8125zm0 -42.46875l-6.15625 0l0 -6.28125l6.15625 0l0 6.28125zm15.28125 37.65625l19.53125 0l0 4.8125l-26.875 0l0 -4.3125l18.28125 -24.625l-18.0625 0l0 -4.875l25.59375 0l0 4.1875l-18.46875 24.8125zm40.40625 5.46875q-7.0625 0 -11.234375 -4.703125q-4.171875 -4.703125 -4.171875 -12.203125l0 -1.375q0 -7.21875 4.296875 -12.015625q4.296875 -4.796875 10.171875 -4.796875q6.84375 0 10.34375 4.125q3.5 4.125 3.5 11.0l0 3.84375l-21.9375 0l-0.09375 0.15625q0.09375 4.875 2.46875 8.015625q2.375 3.140625 6.65625 3.140625q3.125 0 5.484375 -0.890625q2.359375 -0.890625 4.078125 -2.453125l2.40625 4.0q-1.8125 1.78125 -4.78125 2.96875q-2.96875 1.1875 -7.1875 1.1875zm-0.9375 -30.25q-3.09375 0 -5.28125 2.609375q-2.1875 2.609375 -2.6875 6.546875l0.0625 0.15625l15.59375 0l0 -0.8125q0 -3.625 -1.9375 -6.0625q-1.9375 -2.4375 -5.75 -2.4375zm19.34375 13.3125q0 -8.15625 3.484375 -13.15625q3.484375 -5.0 9.765625 -5.0q2.96875 0 5.265625 1.09375q2.296875 1.09375 3.921875 3.1875l0 -18.59375l6.15625 0l0 48.75l-5.03125 0l-0.71875 -4.15625q-1.65625 2.375 -4.0625 3.59375q-2.40625 1.21875 -5.59375 1.21875q-6.1875 0 -9.6875 -4.484375q-3.5 -4.484375 -3.5 -11.796875l0 -0.65625zm6.15625 0.65625q0 5.125 2.09375 8.203125q2.09375 3.078125 6.5 3.078125q2.75 0 4.625 -1.25q1.875 -1.25 3.0625 -3.5l0 -15.78125q-1.1875 -2.09375 -3.078125 -3.328125q-1.890625 -1.234375 -4.546875 -1.234375q-4.4375 0 -6.546875 3.65625q-2.109375 3.65625 -2.109375 9.5l0 0.65625zm67.1875 6.65625q0 -2.03125 -1.546875 -3.34375q-1.546875 -1.3125 -5.859375 -2.28125q-6.15625 -1.34375 -9.265625 -3.640625q-3.109375 -2.296875 -3.109375 -6.265625q0 -4.125 3.5 -7.03125q3.5 -2.90625 9.125 -2.90625q5.90625 0 9.390625 3.03125q3.484375 3.03125 3.328125 7.375l-0.0625 0.1875l-5.875 0q0 -2.21875 -1.859375 -3.984375q-1.859375 -1.765625 -4.921875 -1.765625q-3.28125 0 -4.875 1.4375q-1.59375 1.4375 -1.59375 3.46875q0 2.0 1.40625 3.15625q1.40625 1.15625 5.71875 2.0625q6.40625 1.375 9.53125 3.734375q3.125 2.359375 3.125 6.328125q0 4.5 -3.640625 7.28125q-3.640625 2.78125 -9.515625 2.78125q-6.46875 0 -10.1875 -3.28125q-3.71875 -3.28125 -3.53125 -7.65625l0.0625 -0.1875l5.875 0q0.15625 3.28125 2.4375 4.796875q2.28125 1.515625 5.34375 1.515625q3.28125 0 5.140625 -1.328125q1.859375 -1.328125 1.859375 -3.484375zm42.625 -6.65625q0 7.3125 -3.5 11.796875q-3.5 4.484375 -9.65625 4.484375q-3.125 0 -5.484375 -1.046875q-2.359375 -1.046875 -4.015625 -3.140625l0 16.53125l-6.15625 0l0 -46.8125l4.71875 0l0.96875 4.375q1.65625 -2.4375 4.125 -3.71875q2.46875 -1.28125 5.75 -1.28125q6.28125 0 9.765625 4.984375q3.484375 4.984375 3.484375 13.171875l0 0.65625zm-6.15625 -0.65625q0 -5.75 -2.265625 -9.453125q-2.265625 -3.703125 -6.671875 -3.703125q-2.65625 0 -4.53125 1.203125q-1.875 1.203125 -3.03125 3.296875l0 16.34375q1.15625 2.09375 3.03125 3.265625q1.875 1.171875 4.59375 1.171875q4.375 0 6.625 -3.203125q2.25 -3.203125 2.25 -8.265625l0 -0.65625zm34.5 16.28125q-0.3125 -1.53125 -0.484375 -2.703125q-0.171875 -1.171875 -0.203125 -2.359375q-1.71875 2.4375 -4.484375 4.078125q-2.765625 1.640625 -5.953125 1.640625q-5.28125 0 -8.046875 -2.703125q-2.765625 -2.703125 -2.765625 -7.453125q0 -4.84375 3.921875 -7.578125q3.921875 -2.734375 10.640625 -2.734375l6.6875 0l0 -3.34375q0 -2.96875 -1.8125 -4.703125q-1.8125 -1.734375 -5.125 -1.734375q-2.96875 0 -4.828125 1.515625q-1.859375 1.515625 -1.859375 3.640625l-5.875 0l-0.0625 -0.1875q-0.1875 -3.6875 3.484375 -6.75q3.671875 -3.0625 9.484375 -3.0625q5.75 0 9.25 2.921875q3.5 2.921875 3.5 8.421875l0 16.28125q0 1.8125 0.1875 3.5q0.1875 1.6875 0.6875 3.3125l-6.34375 0zm-10.21875 -4.5q3.34375 0 6.03125 -1.71875q2.6875 -1.71875 3.5 -3.9375l0 -5.5l-6.90625 0q-3.71875 0 -5.953125 1.875q-2.234375 1.875 -2.234375 4.40625q0 2.25 1.40625 3.5625q1.40625 1.3125 4.15625 1.3125zm38.375 0.34375q3.0625 0 5.390625 -1.890625q2.328125 -1.890625 2.328125 -4.640625l5.53125 0l0.0625 0.1875q0.15625 4.375 -3.890625 7.765625q-4.046875 3.390625 -9.421875 3.390625q-7.375 0 -11.28125 -4.8125q-3.90625 -4.8125 -3.90625 -12.09375l0 -1.3125q0 -7.21875 3.921875 -12.046875q3.921875 -4.828125 11.265625 -4.828125q5.9375 0 9.703125 3.5q3.765625 3.5 3.640625 8.59375l-0.0625 0.1875l-5.5625 0q0 -3.09375 -2.1875 -5.265625q-2.1875 -2.171875 -5.53125 -2.171875q-4.84375 0 -6.921875 3.484375q-2.078125 3.484375 -2.078125 8.546875l0 1.3125q0 5.1875 2.0625 8.640625q2.0625 3.453125 6.9375 3.453125zm34.25 4.8125q-7.0625 0 -11.234375 -4.703125q-4.171875 -4.703125 -4.171875 -12.203125l0 -1.375q0 -7.21875 4.296875 -12.015625q4.296875 -4.796875 10.171875 -4.796875q6.84375 0 10.34375 4.125q3.5 4.125 3.5 11.0l0 3.84375l-21.9375 0l-0.09375 0.15625q0.09375 4.875 2.46875 8.015625q2.375 3.140625 6.65625 3.140625q3.125 0 5.484375 -0.890625q2.359375 -0.890625 4.078125 -2.453125l2.40625 4.0q-1.8125 1.78125 -4.78125 2.96875q-2.96875 1.1875 -7.1875 1.1875zm-0.9375 -30.25q-3.09375 0 -5.28125 2.609375q-2.1875 2.609375 -2.6875 6.546875l0.0625 0.15625l15.59375 0l0 -0.8125q0 -3.625 -1.9375 -6.0625q-1.9375 -2.4375 -5.75 -2.4375zm57.4375 29.59375q-0.3125 -1.53125 -0.484375 -2.703125q-0.171875 -1.171875 -0.203125 -2.359375q-1.71875 2.4375 -4.484375 4.078125q-2.765625 1.640625 -5.953125 1.640625q-5.28125 0 -8.046875 -2.703125q-2.765625 -2.703125 -2.765625 -7.453125q0 -4.84375 3.921875 -7.578125q3.921875 -2.734375 10.640625 -2.734375l6.6875 0l0 -3.34375q0 -2.96875 -1.8125 -4.703125q-1.8125 -1.734375 -5.125 -1.734375q-2.96875 0 -4.828125 1.515625q-1.859375 1.515625 -1.859375 3.640625l-5.875 0l-0.0625 -0.1875q-0.1875 -3.6875 3.484375 -6.75q3.671875 -3.0625 9.484375 -3.0625q5.75 0 9.25 2.921875q3.5 2.921875 3.5 8.421875l0 16.28125q0 1.8125 0.1875 3.5q0.1875 1.6875 0.6875 3.3125l-6.34375 0zm-10.21875 -4.5q3.34375 0 6.03125 -1.71875q2.6875 -1.71875 3.5 -3.9375l0 -5.5l-6.90625 0q-3.71875 0 -5.953125 1.875q-2.234375 1.875 -2.234375 4.40625q0 2.25 1.40625 3.5625q1.40625 1.3125 4.15625 1.3125zm30.125 -29.3125l0.4375 5.03125q1.6875 -2.6875 4.234375 -4.171875q2.546875 -1.484375 5.796875 -1.484375q5.46875 0 8.46875 3.203125q3.0 3.203125 3.0 9.890625l0 21.34375l-6.15625 0l0 -21.21875q0 -4.46875 -1.765625 -6.34375q-1.765625 -1.875 -5.390625 -1.875q-2.65625 0 -4.703125 1.28125q-2.046875 1.28125 -3.265625 3.5l0 24.65625l-6.15625 0l0 -33.8125l5.5 0zm29.46875 17.53125q0 -8.15625 3.484375 -13.15625q3.484375 -5.0 9.765625 -5.0q2.96875 0 5.265625 1.09375q2.296875 1.09375 3.921875 3.1875l0 -18.59375l6.15625 0l0 48.75l-5.03125 0l-0.71875 -4.15625q-1.65625 2.375 -4.0625 3.59375q-2.40625 1.21875 -5.59375 1.21875q-6.1875 0 -9.6875 -4.484375q-3.5 -4.484375 -3.5 -11.796875l0 -0.65625zm6.15625 0.65625q0 5.125 2.09375 8.203125q2.09375 3.078125 6.5 3.078125q2.75 0 4.625 -1.25q1.875 -1.25 3.0625 -3.5l0 -15.78125q-1.1875 -2.09375 -3.078125 -3.328125q-1.890625 -1.234375 -4.546875 -1.234375q-4.4375 0 -6.546875 3.65625q-2.109375 3.65625 -2.109375 9.5l0 0.65625zm68.3125 15.625q-0.3125 -1.53125 -0.484375 -2.703125q-0.171875 -1.171875 -0.203125 -2.359375q-1.71875 2.4375 -4.484375 4.078125q-2.765625 1.640625 -5.953125 1.640625q-5.28125 0 -8.046875 -2.703125q-2.765625 -2.703125 -2.765625 -7.453125q0 -4.84375 3.921875 -7.578125q3.921875 -2.734375 10.640625 -2.734375l6.6875 0l0 -3.34375q0 -2.96875 -1.8125 -4.703125q-1.8125 -1.734375 -5.125 -1.734375q-2.96875 0 -4.828125 1.515625q-1.859375 1.515625 -1.859375 3.640625l-5.875 0l-0.0625 -0.1875q-0.1875 -3.6875 3.484375 -6.75q3.671875 -3.0625 9.484375 -3.0625q5.75 0 9.25 2.921875q3.5 2.921875 3.5 8.421875l0 16.28125q0 1.8125 0.1875 3.5q0.1875 1.6875 0.6875 3.3125l-6.34375 0zm-10.21875 -4.5q3.34375 0 6.03125 -1.71875q2.6875 -1.71875 3.5 -3.9375l0 -5.5l-6.90625 0q-3.71875 0 -5.953125 1.875q-2.234375 1.875 -2.234375 4.40625q0 2.25 1.40625 3.5625q1.40625 1.3125 4.15625 1.3125zm60.1875 -4.46875q0 -2.03125 -1.546875 -3.34375q-1.546875 -1.3125 -5.859375 -2.28125q-6.15625 -1.34375 -9.265625 -3.640625q-3.109375 -2.296875 -3.109375 -6.265625q0 -4.125 3.5 -7.03125q3.5 -2.90625 9.125 -2.90625q5.90625 0 9.390625 3.03125q3.484375 3.03125 3.328125 7.375l-0.0625 0.1875l-5.875 0q0 -2.21875 -1.859375 -3.984375q-1.859375 -1.765625 -4.921875 -1.765625q-3.28125 0 -4.875 1.4375q-1.59375 1.4375 -1.59375 3.46875q0 2.0 1.40625 3.15625q1.40625 1.15625 5.71875 2.0625q6.40625 1.375 9.53125 3.734375q3.125 2.359375 3.125 6.328125q0 4.5 -3.640625 7.28125q-3.640625 2.78125 -9.515625 2.78125q-6.46875 0 -10.1875 -3.28125q-3.71875 -3.28125 -3.53125 -7.65625l0.0625 -0.1875l5.875 0q0.15625 3.28125 2.4375 4.796875q2.28125 1.515625 5.34375 1.515625q3.28125 0 5.140625 -1.328125q1.859375 -1.328125 1.859375 -3.484375zm24.15625 -3.5625l1.09375 4.25l0.1875 0l8.3125 -25.53125l6.84375 0l-14.21875 39.0q-1.28125 3.40625 -3.671875 5.9375q-2.390625 2.53125 -6.453125 2.53125q-0.75 0 -1.90625 -0.171875q-1.15625 -0.171875 -1.78125 -0.328125l0.625 -4.84375q-0.1875 -0.03125 1.109375 0.0625q1.296875 0.09375 1.640625 0.09375q1.96875 0 3.21875 -1.75q1.25 -1.75 2.09375 -3.875l1.46875 -3.53125l-12.5625 -33.125l6.875 0l7.125 21.28125zm41.5 3.5625q0 -2.03125 -1.546875 -3.34375q-1.546875 -1.3125 -5.859375 -2.28125q-6.15625 -1.34375 -9.265625 -3.640625q-3.109375 -2.296875 -3.109375 -6.265625q0 -4.125 3.5 -7.03125q3.5 -2.90625 9.125 -2.90625q5.90625 0 9.390625 3.03125q3.484375 3.03125 3.328125 7.375l-0.0625 0.1875l-5.875 0q0 -2.21875 -1.859375 -3.984375q-1.859375 -1.765625 -4.921875 -1.765625q-3.28125 0 -4.875 1.4375q-1.59375 1.4375 -1.59375 3.46875q0 2.0 1.40625 3.15625q1.40625 1.15625 5.71875 2.0625q6.40625 1.375 9.53125 3.734375q3.125 2.359375 3.125 6.328125q0 4.5 -3.640625 7.28125q-3.640625 2.78125 -9.515625 2.78125q-6.46875 0 -10.1875 -3.28125q-3.71875 -3.28125 -3.53125 -7.65625l0.0625 -0.1875l5.875 0q0.15625 3.28125 2.4375 4.796875q2.28125 1.515625 5.34375 1.515625q3.28125 0 5.140625 -1.328125q1.859375 -1.328125 1.859375 -3.484375zm21.9375 -33.0l0 8.15625l6.40625 0l0 4.5625l-6.40625 0l0 20.53125q0 2.375 0.984375 3.34375q0.984375 0.96875 2.609375 0.96875q0.53125 0 1.171875 -0.125q0.640625 -0.125 1.140625 -0.3125l0.8125 4.21875q-0.6875 0.5625 -2.015625 0.921875q-1.328125 0.359375 -2.671875 0.359375q-3.75 0 -5.96875 -2.265625q-2.21875 -2.265625 -2.21875 -7.109375l0 -20.53125l-5.375 0l0 -4.5625l5.375 0l0 -8.15625l6.15625 0zm28.03125 42.625q-7.0625 0 -11.234375 -4.703125q-4.171875 -4.703125 -4.171875 -12.203125l0 -1.375q0 -7.21875 4.296875 -12.015625q4.296875 -4.796875 10.171875 -4.796875q6.84375 0 10.34375 4.125q3.5 4.125 3.5 11.0l0 3.84375l-21.9375 0l-0.09375 0.15625q0.09375 4.875 2.46875 8.015625q2.375 3.140625 6.65625 3.140625q3.125 0 5.484375 -0.890625q2.359375 -0.890625 4.078125 -2.453125l2.40625 4.0q-1.8125 1.78125 -4.78125 2.96875q-2.96875 1.1875 -7.1875 1.1875zm-0.9375 -30.25q-3.09375 0 -5.28125 2.609375q-2.1875 2.609375 -2.6875 6.546875l0.0625 0.15625l15.59375 0l0 -0.8125q0 -3.625 -1.9375 -6.0625q-1.9375 -2.4375 -5.75 -2.4375zm26.25 -4.21875l0.4375 4.4375q1.65625 -2.40625 4.203125 -3.734375q2.546875 -1.328125 5.921875 -1.328125q3.375 0 5.796875 1.5625q2.421875 1.5625 3.640625 4.6875q1.59375 -2.875 4.21875 -4.5625q2.625 -1.6875 6.125 -1.6875q5.15625 0 8.15625 3.546875q3.0 3.546875 3.0 10.671875l0 20.21875l-6.15625 0l0 -20.28125q0 -5.0 -1.71875 -7.078125q-1.71875 -2.078125 -5.125 -2.078125q-3.15625 0 -5.109375 2.1875q-1.953125 2.1875 -2.296875 5.53125l0 0.25l0 21.46875l-6.1875 0l0 -20.28125q0 -4.75 -1.765625 -6.953125q-1.765625 -2.203125 -5.078125 -2.203125q-2.8125 0 -4.625 1.15625q-1.8125 1.15625 -2.78125 3.25l0 25.03125l-6.15625 0l0 -33.8125l5.5 0zm64.90625 16.59375q0 -7.5 4.0625 -12.359375q4.0625 -4.859375 11.03125 -4.859375q7.03125 0 11.109375 4.84375q4.078125 4.84375 4.078125 12.375l0 0.6875q0 7.5625 -4.0625 12.375q-4.0625 4.8125 -11.0625 4.8125q-7.0 0 -11.078125 -4.828125q-4.078125 -4.828125 -4.078125 -12.359375l0 -0.6875zm6.15625 0.6875q0 5.375 2.265625 8.875q2.265625 3.5 6.734375 3.5q4.40625 0 6.6875 -3.5q2.28125 -3.5 2.28125 -8.875l0 -0.6875q0 -5.3125 -2.296875 -8.84375q-2.296875 -3.53125 -6.734375 -3.53125q-4.40625 0 -6.671875 3.53125q-2.265625 3.53125 -2.265625 8.84375l0 0.6875zm34.21875 16.53125l0 -29.25l-5.28125 0l0 -4.5625l5.28125 0l0 -4.28125q0 -5.40625 2.828125 -8.359375q2.828125 -2.953125 7.890625 -2.953125q1.0625 0 2.140625 0.171875q1.078125 0.171875 2.390625 0.484375l-0.75 4.6875q-0.5625 -0.125 -1.359375 -0.21875q-0.796875 -0.09375 -1.671875 -0.09375q-2.6875 0 -4.0 1.609375q-1.3125 1.609375 -1.3125 4.671875l0 4.28125l7.03125 0l0 4.5625l-7.03125 0l0 29.25l-6.15625 0z" fill-rule="nonzero"></path><path fill="#a4c2f4" d="m111.92151 507.26004l0.4375 4.4375q1.65625 -2.40625 4.203125 -3.734375q2.546875 -1.328125 5.921875 -1.328125q3.375 0 5.796875 1.5625q2.421875 1.5625 3.640625 4.6875305q1.59375 -2.8750305 4.21875 -4.5625305q2.625 -1.6875 6.125 -1.6875q5.15625 0 8.15625 3.546875q3.0 3.5469055 3.0 10.6719055l0 20.21875l-6.15625 0l0 -20.28125q0 -5.0 -1.71875 -7.078125q-1.71875 -2.0781555 -5.125 -2.0781555q-3.15625 0 -5.109375 2.1875305q-1.953125 2.1875 -2.296875 5.53125l0 0.25l0 21.46875l-6.1875 0l0 -20.28125q0 -4.75 -1.765625 -6.953125q-1.765625 -2.2031555 -5.078125 -2.2031555q-2.8125 0 -4.625 1.1562805q-1.8125 1.15625 -2.78125 3.25l0 25.03125l-6.15625 0l0 -33.81253l5.5 0zm49.0 16.59378q0 -7.5 4.0625 -12.3594055q4.0625 -4.859375 11.03125 -4.859375q7.03125 0 11.109375 4.84375q4.078125 4.8437805 4.078125 12.3750305l0 0.6875q0 7.5625 -4.0625 12.375q-4.0625 4.8125 -11.0625 4.8125q-7.0 0 -11.078125 -4.828125q-4.078125 -4.828125 -4.078125 -12.359375l0 -0.6875zm6.15625 0.6875q0 5.375 2.265625 8.875q2.265625 3.5 6.734375 3.5q4.40625 0 6.6875 -3.5q2.28125 -3.5 2.28125 -8.875l0 -0.6875q0 -5.3125 -2.296875 -8.84375q-2.296875 -3.5312805 -6.734375 -3.5312805q-4.40625 0 -6.671875 3.5312805q-2.265625 3.53125 -2.265625 8.84375l0 0.6875zm39.78125 -25.43753l0 8.15625l6.40625 0l0 4.5625l-6.40625 0l0 20.53128q0 2.375 0.984375 3.34375q0.984375 0.96875 2.609375 0.96875q0.53125 0 1.171875 -0.125q0.640625 -0.125 1.140625 -0.3125l0.8125 4.21875q-0.6875 0.5625 -2.015625 0.921875q-1.328125 0.359375 -2.671875 0.359375q-3.75 0 -5.96875 -2.265625q-2.21875 -2.265625 -2.21875 -7.109375l0 -20.53128l-5.375 0l0 -4.5625l5.375 0l0 -8.15625l6.15625 0zm20.65625 41.96878l-6.15625 0l0 -33.81253l6.15625 0l0 33.81253zm0 -42.46878l-6.15625 0l0 -6.28125l6.15625 0l0 6.28125zm8.03125 25.25003q0 -7.5 4.0625 -12.3594055q4.0625 -4.859375 11.03125 -4.859375q7.03125 0 11.109375 4.84375q4.078125 4.8437805 4.078125 12.3750305l0 0.6875q0 7.5625 -4.0625 12.375q-4.0625 4.8125 -11.0625 4.8125q-7.0 0 -11.078125 -4.828125q-4.078125 -4.828125 -4.078125 -12.359375l0 -0.6875zm6.15625 0.6875q0 5.375 2.265625 8.875q2.265625 3.5 6.734375 3.5q4.40625 0 6.6875 -3.5q2.28125 -3.5 2.28125 -8.875l0 -0.6875q0 -5.3125 -2.296875 -8.84375q-2.296875 -3.5312805 -6.734375 -3.5312805q-4.40625 0 -6.671875 3.5312805q-2.265625 3.53125 -2.265625 8.84375l0 0.6875zm37.15625 -17.28128l0.4375 5.0312805q1.6875 -2.6875305 4.234375 -4.1719055q2.546875 -1.484375 5.796875 -1.484375q5.46875 0 8.46875 3.203125q3.0 3.2031555 3.0 9.8906555l0 21.34375l-6.15625 0l0 -21.21875q0 -4.46875 -1.765625 -6.34375q-1.765625 -1.8750305 -5.390625 -1.8750305q-2.65625 0 -4.703125 1.2812805q-2.046875 1.28125 -3.265625 3.5l0 24.65625l-6.15625 0l0 -33.81253l5.5 0zm37.59375 33.81253l-6.15625 0l0 -6.3125l6.15625 0l0 6.3125zm61.90625 -18.6875q0 8.34375 -5.171875 13.84375q-5.171875 5.5 -13.421875 5.5q-7.96875 0 -12.953125 -5.5q-4.984375 -5.5 -4.984375 -13.84375l0 -8.09375q0 -8.3125305 4.984375 -13.8437805q4.984375 -5.53125 12.953125 -5.53125q8.25 0 13.421875 5.515625q5.171875 5.515625 5.171875 13.8594055l0 8.09375zm-6.15625 -8.15625q0 -6.2500305 -3.375 -10.2500305q-3.375 -4.0 -9.0625 -4.0q-5.375 0 -8.578125 4.0q-3.203125 4.0 -3.203125 10.2500305l0 8.15625q0 6.3125 3.203125 10.3125q3.203125 4.0 8.578125 4.0q5.71875 0 9.078125 -3.984375q3.359375 -3.984375 3.359375 -10.328125l0 -8.15625zm35.65625 21.84375q-1.59375 2.71875 -4.09375 4.1875q-2.5 1.46875 -5.78125 1.46875q-5.53125 0 -8.625 -3.53125q-3.09375 -3.53125 -3.09375 -11.0l0 -19.93753l6.15625 0l0 20.00003q0 5.40625 1.59375 7.4375q1.59375 2.03125 4.96875 2.03125q3.28125 0 5.421875 -1.328125q2.140625 -1.328125 3.234375 -3.765625l0 -24.37503l6.15625 0l0 33.81253l-5.53125 0l-0.40625 -5.0zm30.90625 -23.375l-3.15625 -0.1875q-2.4375 0 -4.109375 1.15625q-1.671875 1.15625 -2.578125 3.25l0 24.15625l-6.15625 0l0 -33.81253l5.5 0l0.59375 4.9375305q1.4375 -2.6250305 3.546875 -4.0937805q2.109375 -1.46875 4.859375 -1.46875q0.6875 0 1.3125 0.109375q0.625 0.109375 1.03125 0.234375l-0.84375 5.7187805zm27.34375 -5.4375305l0.4375 4.4375q1.65625 -2.40625 4.203125 -3.734375q2.546875 -1.328125 5.921875 -1.328125q3.375 0 5.796875 1.5625q2.421875 1.5625 3.640625 4.6875305q1.59375 -2.8750305 4.21875 -4.5625305q2.625 -1.6875 6.125 -1.6875q5.15625 0 8.15625 3.546875q3.0 3.5469055 3.0 10.6719055l0 20.21875l-6.15625 0l0 -20.28125q0 -5.0 -1.71875 -7.078125q-1.71875 -2.0781555 -5.125 -2.0781555q-3.15625 0 -5.109375 2.1875305q-1.953125 2.1875 -2.296875 5.53125l0 0.25l0 21.46875l-6.1875 0l0 -20.28125q0 -4.75 -1.765625 -6.953125q-1.765625 -2.2031555 -5.078125 -2.2031555q-2.8125 0 -4.625 1.1562805q-1.8125 1.15625 -2.78125 3.25l0 25.03125l-6.15625 0l0 -33.81253l5.5 0zm71.21875 33.81253q-0.3125 -1.53125 -0.484375 -2.703125q-0.171875 -1.171875 -0.203125 -2.359375q-1.71875 2.4375 -4.484375 4.078125q-2.765625 1.640625 -5.953125 1.640625q-5.28125 0 -8.046875 -2.703125q-2.765625 -2.703125 -2.765625 -7.453125q0 -4.84375 3.921875 -7.578125q3.921875 -2.734375 10.640625 -2.734375l6.6875 0l0 -3.34375q0 -2.96875 -1.8125 -4.703125q-1.8125 -1.7344055 -5.125 -1.7344055q-2.96875 0 -4.828125 1.5156555q-1.859375 1.515625 -1.859375 3.640625l-5.875 0l-0.0625 -0.1875q-0.1875 -3.6875 3.484375 -6.7500305q3.671875 -3.0625 9.484375 -3.0625q5.75 0 9.25 2.921875q3.5 2.9219055 3.5 8.4219055l0 16.28125q0 1.8125 0.1875 3.5q0.1875 1.6875 0.6875 3.3125l-6.34375 0zm-10.21875 -4.5q3.34375 0 6.03125 -1.71875q2.6875 -1.71875 3.5 -3.9375l0 -5.5l-6.90625 0q-3.71875 0 -5.953125 1.875q-2.234375 1.875 -2.234375 4.40625q0 2.25 1.40625 3.5625q1.40625 1.3125 4.15625 1.3125zm32.75 -37.46878l0 8.15625l6.40625 0l0 4.5625l-6.40625 0l0 20.53128q0 2.375 0.984375 3.34375q0.984375 0.96875 2.609375 0.96875q0.53125 0 1.171875 -0.125q0.640625 -0.125 1.140625 -0.3125l0.8125 4.21875q-0.6875 0.5625 -2.015625 0.921875q-1.328125 0.359375 -2.671875 0.359375q-3.75 0 -5.96875 -2.265625q-2.21875 -2.265625 -2.21875 -7.109375l0 -20.53128l-5.375 0l0 -4.5625l5.375 0l0 -8.15625l6.15625 0zm28.03125 42.62503q-7.0625 0 -11.234375 -4.703125q-4.171875 -4.703125 -4.171875 -12.203125l0 -1.375q0 -7.21875 4.296875 -12.0156555q4.296875 -4.796875 10.171875 -4.796875q6.84375 0 10.34375 4.125q3.5 4.1250305 3.5 11.0000305l0 3.84375l-21.9375 0l-0.09375 0.15625q0.09375 4.875 2.46875 8.015625q2.375 3.140625 6.65625 3.140625q3.125 0 5.484375 -0.890625q2.359375 -0.890625 4.078125 -2.453125l2.40625 4.0q-1.8125 1.78125 -4.78125 2.96875q-2.96875 1.1875 -7.1875 1.1875zm-0.9375 -30.25003q-3.09375 0 -5.28125 2.6094055q-2.1875 2.609375 -2.6875 6.546875l0.0625 0.15625l15.59375 0l0 -0.8125q0 -3.625 -1.9375 -6.0625q-1.9375 -2.4375305 -5.75 -2.4375305zm36.75 1.2187805l-3.15625 -0.1875q-2.4375 0 -4.109375 1.15625q-1.671875 1.15625 -2.578125 3.25l0 24.15625l-6.15625 0l0 -33.81253l5.5 0l0.59375 4.9375305q1.4375 -2.6250305 3.546875 -4.0937805q2.109375 -1.46875 4.859375 -1.46875q0.6875 0 1.3125 0.109375q0.625 0.109375 1.03125 0.234375l-0.84375 5.7187805zm12.59375 28.375l-6.15625 0l0 -33.81253l6.15625 0l0 33.81253zm0 -42.46878l-6.15625 0l0 -6.28125l6.15625 0l0 6.28125zm30.25 42.46878q-0.3125 -1.53125 -0.484375 -2.703125q-0.171875 -1.171875 -0.203125 -2.359375q-1.71875 2.4375 -4.484375 4.078125q-2.765625 1.640625 -5.953125 1.640625q-5.28125 0 -8.046875 -2.703125q-2.765625 -2.703125 -2.765625 -7.453125q0 -4.84375 3.921875 -7.578125q3.921875 -2.734375 10.640625 -2.734375l6.6875 0l0 -3.34375q0 -2.96875 -1.8125 -4.703125q-1.8125 -1.7344055 -5.125 -1.7344055q-2.96875 0 -4.828125 1.5156555q-1.859375 1.515625 -1.859375 3.640625l-5.875 0l-0.0625 -0.1875q-0.1875 -3.6875 3.484375 -6.7500305q3.671875 -3.0625 9.484375 -3.0625q5.75 0 9.25 2.921875q3.5 2.9219055 3.5 8.4219055l0 16.28125q0 1.8125 0.1875 3.5q0.1875 1.6875 0.6875 3.3125l-6.34375 0zm-10.21875 -4.5q3.34375 0 6.03125 -1.71875q2.6875 -1.71875 3.5 -3.9375l0 -5.5l-6.90625 0q-3.71875 0 -5.953125 1.875q-2.234375 1.875 -2.234375 4.40625q0 2.25 1.40625 3.5625q1.40625 1.3125 4.15625 1.3125zm31.28125 4.5l-6.15625 0l0 -48.75003l6.15625 0l0 48.75003zm32.03125 0l-6.15625 0l0 -33.81253l6.15625 0l0 33.81253zm0 -42.46878l-6.15625 0l0 -6.28125l6.15625 0l0 6.28125zm29.125 33.50003q0 -2.03125 -1.546875 -3.34375q-1.546875 -1.3125 -5.859375 -2.28125q-6.15625 -1.34375 -9.265625 -3.640625q-3.109375 -2.296875 -3.109375 -6.265625q0 -4.125 3.5 -7.0312805q3.5 -2.90625 9.125 -2.90625q5.90625 0 9.390625 3.03125q3.484375 3.0312805 3.328125 7.3750305l-0.0625 0.1875l-5.875 0q0 -2.21875 -1.859375 -3.984375q-1.859375 -1.7656555 -4.921875 -1.7656555q-3.28125 0 -4.875 1.4375305q-1.59375 1.4375 -1.59375 3.46875q0 2.0 1.40625 3.15625q1.40625 1.15625 5.71875 2.0625q6.40625 1.375 9.53125 3.734375q3.125 2.359375 3.125 6.328125q0 4.5 -3.640625 7.28125q-3.640625 2.78125 -9.515625 2.78125q-6.46875 0 -10.1875 -3.28125q-3.71875 -3.28125 -3.53125 -7.65625l0.0625 -0.1875l5.875 0q0.15625 3.28125 2.4375 4.796875q2.28125 1.515625 5.34375 1.515625q3.28125 0 5.140625 -1.328125q1.859375 -1.328125 1.859375 -3.484375zm28.375 -7.3125q0 -8.15625 3.5625 -13.1562805q3.5625 -5.0 9.84375 -5.0q3.21875 0 5.65625 1.296875q2.4375 1.296875 4.0625 3.734375l0.75 -4.40625l4.90625 0l0 34.00003q0 6.5 -3.78125 9.984375q-3.78125 3.484375 -10.90625 3.484375q-2.4375 0 -5.265625 -0.671875q-2.828125 -0.671875 -4.984375 -1.828125l1.5625 -4.78125q1.65625 0.9375 4.0 1.515625q2.34375 0.578125 4.625 0.578125q4.5 0 6.546875 -2.046875q2.046875 -2.046875 2.046875 -6.234375l0 -3.8125q-1.65625 2.125 -3.96875 3.203125q-2.3125 1.078125 -5.3125 1.078125q-6.21875 0 -9.78125 -4.5q-3.5625 -4.5 -3.5625 -11.78125l0 -0.65625zm6.15625 0.65625q0 5.09375 2.15625 8.1875q2.15625 3.09375 6.5625 3.09375q2.78125 0 4.65625 -1.265625q1.875 -1.265625 3.09375 -3.578125l0 -15.5625q-1.1875 -2.15625 -3.09375 -3.421875q-1.90625 -1.2656555 -4.59375 -1.2656555q-4.40625 0 -6.59375 3.6875305q-2.1875 3.6875 -2.1875 9.46875l0 0.65625zm47.5625 -12.75l-3.15625 -0.1875q-2.4375 0 -4.109375 1.15625q-1.671875 1.15625 -2.578125 3.25l0 24.15625l-6.15625 0l0 -33.81253l5.5 0l0.59375 4.9375305q1.4375 -2.6250305 3.546875 -4.0937805q2.109375 -1.46875 4.859375 -1.46875q0.6875 0 1.3125 0.109375q0.625 0.109375 1.03125 0.234375l-0.84375 5.7187805zm4.5 11.15625q0 -7.5 4.0625 -12.3594055q4.0625 -4.859375 11.03125 -4.859375q7.03125 0 11.109375 4.84375q4.078125 4.8437805 4.078125 12.3750305l0 0.6875q0 7.5625 -4.0625 12.375q-4.0625 4.8125 -11.0625 4.8125q-7.0 0 -11.078125 -4.828125q-4.078125 -4.828125 -4.078125 -12.359375l0 -0.6875zm6.15625 0.6875q0 5.375 2.265625 8.875q2.265625 3.5 6.734375 3.5q4.40625 0 6.6875 -3.5q2.28125 -3.5 2.28125 -8.875l0 -0.6875q0 -5.3125 -2.296875 -8.84375q-2.296875 -3.5312805 -6.734375 -3.5312805q-4.40625 0 -6.671875 3.5312805q-2.265625 3.53125 -2.265625 8.84375l0 0.6875zm53.125 11.53125q-1.59375 2.71875 -4.09375 4.1875q-2.5 1.46875 -5.78125 1.46875q-5.53125 0 -8.625 -3.53125q-3.09375 -3.53125 -3.09375 -11.0l0 -19.93753l6.15625 0l0 20.00003q0 5.40625 1.59375 7.4375q1.59375 2.03125 4.96875 2.03125q3.28125 0 5.421875 -1.328125q2.140625 -1.328125 3.234375 -3.765625l0 -24.37503l6.15625 0l0 33.81253l-5.53125 0l-0.40625 -5.0zm20.40625 -28.81253l0.4375 5.0312805q1.6875 -2.6875305 4.234375 -4.1719055q2.546875 -1.484375 5.796875 -1.484375q5.46875 0 8.46875 3.203125q3.0 3.2031555 3.0 9.8906555l0 21.34375l-6.15625 0l0 -21.21875q0 -4.46875 -1.765625 -6.34375q-1.765625 -1.8750305 -5.390625 -1.8750305q-2.65625 0 -4.703125 1.2812805q-2.046875 1.28125 -3.265625 3.5l0 24.65625l-6.15625 0l0 -33.81253l5.5 0zm29.46875 17.53128q0 -8.15625 3.484375 -13.1562805q3.484375 -5.0 9.765625 -5.0q2.96875 0 5.265625 1.09375q2.296875 1.09375 3.921875 3.1875l0 -18.59375l6.15625 0l0 48.75003l-5.03125 0l-0.71875 -4.15625q-1.65625 2.375 -4.0625 3.59375q-2.40625 1.21875 -5.59375 1.21875q-6.1875 0 -9.6875 -4.484375q-3.5 -4.484375 -3.5 -11.796875l0 -0.65625zm6.15625 0.65625q0 5.125 2.09375 8.203125q2.09375 3.078125 6.5 3.078125q2.75 0 4.625 -1.25q1.875 -1.25 3.0625 -3.5l0 -15.78125q-1.1875 -2.09375 -3.078125 -3.328125q-1.890625 -1.2344055 -4.546875 -1.2344055q-4.4375 0 -6.546875 3.6562805q-2.109375 3.65625 -2.109375 9.5l0 0.65625zm45.65625 16.28125q-7.0625 0 -11.234375 -4.703125q-4.171875 -4.703125 -4.171875 -12.203125l0 -1.375q0 -7.21875 4.296875 -12.0156555q4.296875 -4.796875 10.171875 -4.796875q6.84375 0 10.34375 4.125q3.5 4.1250305 3.5 11.0000305l0 3.84375l-21.9375 0l-0.09375 0.15625q0.09375 4.875 2.46875 8.015625q2.375 3.140625 6.65625 3.140625q3.125 0 5.484375 -0.890625q2.359375 -0.890625 4.078125 -2.453125l2.40625 4.0q-1.8125 1.78125 -4.78125 2.96875q-2.96875 1.1875 -7.1875 1.1875zm-0.9375 -30.25003q-3.09375 0 -5.28125 2.6094055q-2.1875 2.609375 -2.6875 6.546875l0.0625 0.15625l15.59375 0l0 -0.8125q0 -3.625 -1.9375 -6.0625q-1.9375 -2.4375305 -5.75 -2.4375305zm19.34375 13.3125305q0 -8.15625 3.484375 -13.1562805q3.484375 -5.0 9.765625 -5.0q2.96875 0 5.265625 1.09375q2.296875 1.09375 3.921875 3.1875l0 -18.59375l6.15625 0l0 48.75003l-5.03125 0l-0.71875 -4.15625q-1.65625 2.375 -4.0625 3.59375q-2.40625 1.21875 -5.59375 1.21875q-6.1875 0 -9.6875 -4.484375q-3.5 -4.484375 -3.5 -11.796875l0 -0.65625zm6.15625 0.65625q0 5.125 2.09375 8.203125q2.09375 3.078125 6.5 3.078125q2.75 0 4.625 -1.25q1.875 -1.25 3.0625 -3.5l0 -15.78125q-1.1875 -2.09375 -3.078125 -3.328125q-1.890625 -1.2344055 -4.546875 -1.2344055q-4.4375 0 -6.546875 3.6562805q-2.109375 3.65625 -2.109375 9.5l0 0.65625zm54.1875 15.625l-6.15625 0l0 -33.81253l6.15625 0l0 33.81253zm0 -42.46878l-6.15625 0l0 -6.28125l6.15625 0l0 6.28125zm14.96875 8.65625l0.4375 5.0312805q1.6875 -2.6875305 4.234375 -4.1719055q2.546875 -1.484375 5.796875 -1.484375q5.46875 0 8.46875 3.203125q3.0 3.2031555 3.0 9.8906555l0 21.34375l-6.15625 0l0 -21.21875q0 -4.46875 -1.765625 -6.34375q-1.765625 -1.8750305 -5.390625 -1.8750305q-2.65625 0 -4.703125 1.2812805q-2.046875 1.28125 -3.265625 3.5l0 24.65625l-6.15625 0l0 -33.81253l5.5 0zm54.90625 -8.15625l0 8.15625l6.40625 0l0 4.5625l-6.40625 0l0 20.53128q0 2.375 0.984375 3.34375q0.984375 0.96875 2.609375 0.96875q0.53125 0 1.171875 -0.125q0.640625 -0.125 1.140625 -0.3125l0.8125 4.21875q-0.6875 0.5625 -2.015625 0.921875q-1.328125 0.359375 -2.671875 0.359375q-3.75 0 -5.96875 -2.265625q-2.21875 -2.265625 -2.21875 -7.109375l0 -20.53128l-5.375 0l0 -4.5625l5.375 0l0 -8.15625l6.15625 0zm34.78125 41.96878q-0.3125 -1.53125 -0.484375 -2.703125q-0.171875 -1.171875 -0.203125 -2.359375q-1.71875 2.4375 -4.484375 4.078125q-2.765625 1.640625 -5.953125 1.640625q-5.28125 0 -8.046875 -2.703125q-2.765625 -2.703125 -2.765625 -7.453125q0 -4.84375 3.921875 -7.578125q3.921875 -2.734375 10.640625 -2.734375l6.6875 0l0 -3.34375q0 -2.96875 -1.8125 -4.703125q-1.8125 -1.7344055 -5.125 -1.7344055q-2.96875 0 -4.828125 1.5156555q-1.859375 1.515625 -1.859375 3.640625l-5.875 0l-0.0625 -0.1875q-0.1875 -3.6875 3.484375 -6.7500305q3.671875 -3.0625 9.484375 -3.0625q5.75 0 9.25 2.921875q3.5 2.9219055 3.5 8.4219055l0 16.28125q0 1.8125 0.1875 3.5q0.1875 1.6875 0.6875 3.3125l-6.34375 0zm-10.21875 -4.5q3.34375 0 6.03125 -1.71875q2.6875 -1.71875 3.5 -3.9375l0 -5.5l-6.90625 0q-3.71875 0 -5.953125 1.875q-2.234375 1.875 -2.234375 4.40625q0 2.25 1.40625 3.5625q1.40625 1.3125 4.15625 1.3125zm38.375 0.34375q3.0625 0 5.390625 -1.890625q2.328125 -1.890625 2.328125 -4.640625l5.53125 0l0.0625 0.1875q0.15625 4.375 -3.890625 7.765625q-4.046875 3.390625 -9.421875 3.390625q-7.375 0 -11.28125 -4.8125q-3.90625 -4.8125 -3.90625 -12.09375l0 -1.3125q0 -7.21875 3.921875 -12.0469055q3.921875 -4.828125 11.265625 -4.828125q5.9375 0 9.703125 3.5q3.765625 3.5000305 3.640625 8.5937805l-0.0625 0.1875l-5.5625 0q0 -3.09375 -2.1875 -5.265625q-2.1875 -2.1719055 -5.53125 -2.1719055q-4.84375 0 -6.921875 3.4844055q-2.078125 3.484375 -2.078125 8.546875l0 1.3125q0 5.1875 2.0625 8.640625q2.0625 3.453125 6.9375 3.453125zm28.34375 -37.81253l0 8.15625l6.40625 0l0 4.5625l-6.40625 0l0 20.53128q0 2.375 0.984375 3.34375q0.984375 0.96875 2.609375 0.96875q0.53125 0 1.171875 -0.125q0.640625 -0.125 1.140625 -0.3125l0.8125 4.21875q-0.6875 0.5625 -2.015625 0.921875q-1.328125 0.359375 -2.671875 0.359375q-3.75 0 -5.96875 -2.265625q-2.21875 -2.265625 -2.21875 -7.109375l0 -20.53128l-5.375 0l0 -4.5625l5.375 0l0 -8.15625l6.15625 0zm20.65625 41.96878l-6.15625 0l0 -33.81253l6.15625 0l0 33.81253zm0 -42.46878l-6.15625 0l0 -6.28125l6.15625 0l0 6.28125zm16.125 42.46878l-6.15625 0l0 -48.75003l6.15625 0l0 48.75003zm23.5 0.65625q-7.0625 0 -11.234375 -4.703125q-4.171875 -4.703125 -4.171875 -12.203125l0 -1.375q0 -7.21875 4.296875 -12.0156555q4.296875 -4.796875 10.171875 -4.796875q6.84375 0 10.34375 4.125q3.5 4.1250305 3.5 11.0000305l0 3.84375l-21.9375 0l-0.09375 0.15625q0.09375 4.875 2.46875 8.015625q2.375 3.140625 6.65625 3.140625q3.125 0 5.484375 -0.890625q2.359375 -0.890625 4.078125 -2.453125l2.40625 4.0q-1.8125 1.78125 -4.78125 2.96875q-2.96875 1.1875 -7.1875 1.1875zm-0.9375 -30.25003q-3.09375 0 -5.28125 2.6094055q-2.1875 2.609375 -2.6875 6.546875l0.0625 0.15625l15.59375 0l0 -0.8125q0 -3.625 -1.9375 -6.0625q-1.9375 -2.4375305 -5.75 -2.4375305z" fill-rule="nonzero"></path><path fill="#a4c2f4" d="m122.42151 589.6976l-3.15625 -0.1875q-2.4375 0 -4.109375 1.15625q-1.671875 1.15625 -2.578125 3.25l0 24.15625l-6.15625 0l0 -33.8125l5.5 0l0.59375 4.9375q1.4375 -2.625 3.546875 -4.09375q2.109375 -1.46875 4.859375 -1.46875q0.6875 0 1.3125 0.109375q0.625 0.109375 1.03125 0.234375l-0.84375 5.71875zm19.96875 29.03125q-7.0625 0 -11.234375 -4.703125q-4.171875 -4.703125 -4.171875 -12.203125l0 -1.375q0 -7.21875 4.296875 -12.015625q4.296875 -4.796875 10.171875 -4.796875q6.84375 0 10.34375 4.125q3.5 4.125 3.5 11.0l0 3.84375l-21.9375 0l-0.09375 0.15625q0.09375 4.875 2.46875 8.015625q2.375 3.140625 6.65625 3.140625q3.125 0 5.484375 -0.890625q2.359375 -0.890625 4.078125 -2.453125l2.40625 4.0q-1.8125 1.78125 -4.78125 2.96875q-2.96875 1.1875 -7.1875 1.1875zm-0.9375 -30.25q-3.09375 0 -5.28125 2.609375q-2.1875 2.609375 -2.6875 6.546875l0.0625 0.15625l15.59375 0l0 -0.8125q0 -3.625 -1.9375 -6.0625q-1.9375 -2.4375 -5.75 -2.4375zm41.53125 29.59375q-0.3125 -1.53125 -0.484375 -2.703125q-0.171875 -1.171875 -0.203125 -2.359375q-1.71875 2.4375 -4.484375 4.078125q-2.765625 1.640625 -5.953125 1.640625q-5.28125 0 -8.046875 -2.703125q-2.765625 -2.703125 -2.765625 -7.453125q0 -4.84375 3.921875 -7.578125q3.921875 -2.734375 10.640625 -2.734375l6.6875 0l0 -3.34375q0 -2.96875 -1.8125 -4.703125q-1.8125 -1.734375 -5.125 -1.734375q-2.96875 0 -4.828125 1.515625q-1.859375 1.515625 -1.859375 3.640625l-5.875 0l-0.0625 -0.1875q-0.1875 -3.6875 3.484375 -6.75q3.671875 -3.0625 9.484375 -3.0625q5.75 0 9.25 2.921875q3.5 2.921875 3.5 8.421875l0 16.28125q0 1.8125 0.1875 3.5q0.1875 1.6875 0.6875 3.3125l-6.34375 0zm-10.21875 -4.5q3.34375 0 6.03125 -1.71875q2.6875 -1.71875 3.5 -3.9375l0 -5.5l-6.90625 0q-3.71875 0 -5.953125 1.875q-2.234375 1.875 -2.234375 4.40625q0 2.25 1.40625 3.5625q1.40625 1.3125 4.15625 1.3125zm31.28125 4.5l-6.15625 0l0 -48.75l6.15625 0l0 48.75zm16.125 0l-6.15625 0l0 -33.8125l6.15625 0l0 33.8125zm0 -42.46875l-6.15625 0l0 -6.28125l6.15625 0l0 6.28125zm17.59375 0.5l0 8.15625l6.40625 0l0 4.5625l-6.40625 0l0 20.53125q0 2.375 0.984375 3.34375q0.984375 0.96875 2.609375 0.96875q0.53125 0 1.171875 -0.125q0.640625 -0.125 1.140625 -0.3125l0.8125 4.21875q-0.6875 0.5625 -2.015625 0.921875q-1.328125 0.359375 -2.671875 0.359375q-3.75 0 -5.96875 -2.265625q-2.21875 -2.265625 -2.21875 -7.109375l0 -20.53125l-5.375 0l0 -4.5625l5.375 0l0 -8.15625l6.15625 0zm24.34375 29.4375l1.09375 4.25l0.1875 0l8.3125 -25.53125l6.84375 0l-14.21875 39.0q-1.28125 3.40625 -3.671875 5.9375q-2.390625 2.53125 -6.453125 2.53125q-0.75 0 -1.90625 -0.171875q-1.15625 -0.171875 -1.78125 -0.328125l0.625 -4.84375q-0.1875 -0.03125 1.109375 0.0625q1.296875 0.09375 1.640625 0.09375q1.96875 0 3.21875 -1.75q1.25 -1.75 2.09375 -3.875l1.46875 -3.53125l-12.5625 -33.125l6.875 0l7.125 21.28125zm27.21875 11.03125l-4.6875 9.5625l-3.65625 0l2.1875 -9.875l0 -5.09375l6.15625 0l0 5.40625zm29.8125 1.5l-6.15625 0l0 -33.8125l6.15625 0l0 33.8125zm0 -42.46875l-6.15625 0l0 -6.28125l6.15625 0l0 6.28125zm14.96875 8.65625l0.4375 5.03125q1.6875 -2.6875 4.234375 -4.171875q2.546875 -1.484375 5.796875 -1.484375q5.46875 0 8.46875 3.203125q3.0 3.203125 3.0 9.890625l0 21.34375l-6.15625 0l0 -21.21875q0 -4.46875 -1.765625 -6.34375q-1.765625 -1.875 -5.390625 -1.875q-2.65625 0 -4.703125 1.28125q-2.046875 1.28125 -3.265625 3.5l0 24.65625l-6.15625 0l0 -33.8125l5.5 0zm50.53125 24.84375q0 -2.03125 -1.546875 -3.34375q-1.546875 -1.3125 -5.859375 -2.28125q-6.15625 -1.34375 -9.265625 -3.640625q-3.109375 -2.296875 -3.109375 -6.265625q0 -4.125 3.5 -7.03125q3.5 -2.90625 9.125 -2.90625q5.90625 0 9.390625 3.03125q3.484375 3.03125 3.328125 7.375l-0.0625 0.1875l-5.875 0q0 -2.21875 -1.859375 -3.984375q-1.859375 -1.765625 -4.921875 -1.765625q-3.28125 0 -4.875 1.4375q-1.59375 1.4375 -1.59375 3.46875q0 2.0 1.40625 3.15625q1.40625 1.15625 5.71875 2.0625q6.40625 1.375 9.53125 3.734375q3.125 2.359375 3.125 6.328125q0 4.5 -3.640625 7.28125q-3.640625 2.78125 -9.515625 2.78125q-6.46875 0 -10.1875 -3.28125q-3.71875 -3.28125 -3.53125 -7.65625l0.0625 -0.1875l5.875 0q0.15625 3.28125 2.4375 4.796875q2.28125 1.515625 5.34375 1.515625q3.28125 0 5.140625 -1.328125q1.859375 -1.328125 1.859375 -3.484375zm42.625 -6.65625q0 7.3125 -3.5 11.796875q-3.5 4.484375 -9.65625 4.484375q-3.125 0 -5.484375 -1.046875q-2.359375 -1.046875 -4.015625 -3.140625l0 16.53125l-6.15625 0l0 -46.8125l4.71875 0l0.96875 4.375q1.65625 -2.4375 4.125 -3.71875q2.46875 -1.28125 5.75 -1.28125q6.28125 0 9.765625 4.984375q3.484375 4.984375 3.484375 13.171875l0 0.65625zm-6.15625 -0.65625q0 -5.75 -2.265625 -9.453125q-2.265625 -3.703125 -6.671875 -3.703125q-2.65625 0 -4.53125 1.203125q-1.875 1.203125 -3.03125 3.296875l0 16.34375q1.15625 2.09375 3.03125 3.265625q1.875 1.171875 4.59375 1.171875q4.375 0 6.625 -3.203125q2.25 -3.203125 2.25 -8.265625l0 -0.65625zm20.375 16.28125l-6.15625 0l0 -33.8125l6.15625 0l0 33.8125zm0 -42.46875l-6.15625 0l0 -6.28125l6.15625 0l0 6.28125zm25.46875 14.09375l-3.15625 -0.1875q-2.4375 0 -4.109375 1.15625q-1.671875 1.15625 -2.578125 3.25l0 24.15625l-6.15625 0l0 -33.8125l5.5 0l0.59375 4.9375q1.4375 -2.625 3.546875 -4.09375q2.109375 -1.46875 4.859375 -1.46875q0.6875 0 1.3125 0.109375q0.625 0.109375 1.03125 0.234375l-0.84375 5.71875zm19.96875 29.03125q-7.0625 0 -11.234375 -4.703125q-4.171875 -4.703125 -4.171875 -12.203125l0 -1.375q0 -7.21875 4.296875 -12.015625q4.296875 -4.796875 10.171875 -4.796875q6.84375 0 10.34375 4.125q3.5 4.125 3.5 11.0l0 3.84375l-21.9375 0l-0.09375 0.15625q0.09375 4.875 2.46875 8.015625q2.375 3.140625 6.65625 3.140625q3.125 0 5.484375 -0.890625q2.359375 -0.890625 4.078125 -2.453125l2.40625 4.0q-1.8125 1.78125 -4.78125 2.96875q-2.96875 1.1875 -7.1875 1.1875zm-0.9375 -30.25q-3.09375 0 -5.28125 2.609375q-2.1875 2.609375 -2.6875 6.546875l0.0625 0.15625l15.59375 0l0 -0.8125q0 -3.625 -1.9375 -6.0625q-1.9375 -2.4375 -5.75 -2.4375zm19.34375 13.3125q0 -8.15625 3.484375 -13.15625q3.484375 -5.0 9.765625 -5.0q2.96875 0 5.265625 1.09375q2.296875 1.09375 3.921875 3.1875l0 -18.59375l6.15625 0l0 48.75l-5.03125 0l-0.71875 -4.15625q-1.65625 2.375 -4.0625 3.59375q-2.40625 1.21875 -5.59375 1.21875q-6.1875 0 -9.6875 -4.484375q-3.5 -4.484375 -3.5 -11.796875l0 -0.65625zm6.15625 0.65625q0 5.125 2.09375 8.203125q2.09375 3.078125 6.5 3.078125q2.75 0 4.625 -1.25q1.875 -1.25 3.0625 -3.5l0 -15.78125q-1.1875 -2.09375 -3.078125 -3.328125q-1.890625 -1.234375 -4.546875 -1.234375q-4.4375 0 -6.546875 3.65625q-2.109375 3.65625 -2.109375 9.5l0 0.65625zm76.40625 0q0 7.3125 -3.515625 11.796875q-3.515625 4.484375 -9.671875 4.484375q-3.34375 0 -5.8125 -1.296875q-2.46875 -1.296875 -4.09375 -3.828125l-0.75 4.46875l-5.03125 0l0 -48.75l6.15625 0l0 18.9375q1.59375 -2.25 3.953125 -3.4375q2.359375 -1.1875 5.515625 -1.1875q6.25 0 9.75 5.0q3.5 5.0 3.5 13.15625l0 0.65625zm-6.15625 -0.65625q0 -5.8125 -2.140625 -9.484375q-2.140625 -3.671875 -6.515625 -3.671875q-2.84375 0 -4.796875 1.390625q-1.953125 1.390625 -3.109375 3.734375l0 14.65625q1.1875 2.5 3.109375 3.90625q1.921875 1.40625 4.859375 1.40625q4.34375 0 6.46875 -3.09375q2.125 -3.09375 2.125 -8.1875l0 -0.65625zm24.0 3.75l1.09375 4.25l0.1875 0l8.3125 -25.53125l6.84375 0l-14.21875 39.0q-1.28125 3.40625 -3.671875 5.9375q-2.390625 2.53125 -6.453125 2.53125q-0.75 0 -1.90625 -0.171875q-1.15625 -0.171875 -1.78125 -0.328125l0.625 -4.84375q-0.1875 -0.03125 1.109375 0.0625q1.296875 0.09375 1.640625 0.09375q1.96875 0 3.21875 -1.75q1.25 -1.75 2.09375 -3.875l1.46875 -3.53125l-12.5625 -33.125l6.875 0l7.125 21.28125zm36.3125 -4.6875q0 -7.5 4.0625 -12.359375q4.0625 -4.859375 11.03125 -4.859375q7.03125 0 11.109375 4.84375q4.078125 4.84375 4.078125 12.375l0 0.6875q0 7.5625 -4.0625 12.375q-4.0625 4.8125 -11.0625 4.8125q-7.0 0 -11.078125 -4.828125q-4.078125 -4.828125 -4.078125 -12.359375l0 -0.6875zm6.15625 0.6875q0 5.375 2.265625 8.875q2.265625 3.5 6.734375 3.5q4.40625 0 6.6875 -3.5q2.28125 -3.5 2.28125 -8.875l0 -0.6875q0 -5.3125 -2.296875 -8.84375q-2.296875 -3.53125 -6.734375 -3.53125q-4.40625 0 -6.671875 3.53125q-2.265625 3.53125 -2.265625 8.84375l0 0.6875zm53.125 11.53125q-1.59375 2.71875 -4.09375 4.1875q-2.5 1.46875 -5.78125 1.46875q-5.53125 0 -8.625 -3.53125q-3.09375 -3.53125 -3.09375 -11.0l0 -19.9375l6.15625 0l0 20.0q0 5.40625 1.59375 7.4375q1.59375 2.03125 4.96875 2.03125q3.28125 0 5.421875 -1.328125q2.140625 -1.328125 3.234375 -3.765625l0 -24.375l6.15625 0l0 33.8125l-5.53125 0l-0.40625 -5.0zm30.90625 -23.375l-3.15625 -0.1875q-2.4375 0 -4.109375 1.15625q-1.671875 1.15625 -2.578125 3.25l0 24.15625l-6.15625 0l0 -33.8125l5.5 0l0.59375 4.9375q1.4375 -2.625 3.546875 -4.09375q2.109375 -1.46875 4.859375 -1.46875q0.6875 0 1.3125 0.109375q0.625 0.109375 1.03125 0.234375l-0.84375 5.71875zm41.5 19.40625q0 -2.03125 -1.546875 -3.34375q-1.546875 -1.3125 -5.859375 -2.28125q-6.15625 -1.34375 -9.265625 -3.640625q-3.109375 -2.296875 -3.109375 -6.265625q0 -4.125 3.5 -7.03125q3.5 -2.90625 9.125 -2.90625q5.90625 0 9.390625 3.03125q3.484375 3.03125 3.328125 7.375l-0.0625 0.1875l-5.875 0q0 -2.21875 -1.859375 -3.984375q-1.859375 -1.765625 -4.921875 -1.765625q-3.28125 0 -4.875 1.4375q-1.59375 1.4375 -1.59375 3.46875q0 2.0 1.40625 3.15625q1.40625 1.15625 5.71875 2.0625q6.40625 1.375 9.53125 3.734375q3.125 2.359375 3.125 6.328125q0 4.5 -3.640625 7.28125q-3.640625 2.78125 -9.515625 2.78125q-6.46875 0 -10.1875 -3.28125q-3.71875 -3.28125 -3.53125 -7.65625l0.0625 -0.1875l5.875 0q0.15625 3.28125 2.4375 4.796875q2.28125 1.515625 5.34375 1.515625q3.28125 0 5.140625 -1.328125q1.859375 -1.328125 1.859375 -3.484375zm21.9375 -33.0l0 8.15625l6.40625 0l0 4.5625l-6.40625 0l0 20.53125q0 2.375 0.984375 3.34375q0.984375 0.96875 2.609375 0.96875q0.53125 0 1.171875 -0.125q0.640625 -0.125 1.140625 -0.3125l0.8125 4.21875q-0.6875 0.5625 -2.015625 0.921875q-1.328125 0.359375 -2.671875 0.359375q-3.75 0 -5.96875 -2.265625q-2.21875 -2.265625 -2.21875 -7.109375l0 -20.53125l-5.375 0l0 -4.5625l5.375 0l0 -8.15625l6.15625 0zm35.46875 36.96875q-1.59375 2.71875 -4.09375 4.1875q-2.5 1.46875 -5.78125 1.46875q-5.53125 0 -8.625 -3.53125q-3.09375 -3.53125 -3.09375 -11.0l0 -19.9375l6.15625 0l0 20.0q0 5.40625 1.59375 7.4375q1.59375 2.03125 4.96875 2.03125q3.28125 0 5.421875 -1.328125q2.140625 -1.328125 3.234375 -3.765625l0 -24.375l6.15625 0l0 33.8125l-5.53125 0l-0.40625 -5.0zm13.5 -11.28125q0 -8.15625 3.484375 -13.15625q3.484375 -5.0 9.765625 -5.0q2.96875 0 5.265625 1.09375q2.296875 1.09375 3.921875 3.1875l0 -18.59375l6.15625 0l0 48.75l-5.03125 0l-0.71875 -4.15625q-1.65625 2.375 -4.0625 3.59375q-2.40625 1.21875 -5.59375 1.21875q-6.1875 0 -9.6875 -4.484375q-3.5 -4.484375 -3.5 -11.796875l0 -0.65625zm6.15625 0.65625q0 5.125 2.09375 8.203125q2.09375 3.078125 6.5 3.078125q2.75 0 4.625 -1.25q1.875 -1.25 3.0625 -3.5l0 -15.78125q-1.1875 -2.09375 -3.078125 -3.328125q-1.890625 -1.234375 -4.546875 -1.234375q-4.4375 0 -6.546875 3.65625q-2.109375 3.65625 -2.109375 9.5l0 0.65625zm41.96875 3.09375l1.09375 4.25l0.1875 0l8.3125 -25.53125l6.84375 0l-14.21875 39.0q-1.28125 3.40625 -3.671875 5.9375q-2.390625 2.53125 -6.453125 2.53125q-0.75 0 -1.90625 -0.171875q-1.15625 -0.171875 -1.78125 -0.328125l0.625 -4.84375q-0.1875 -0.03125 1.109375 0.0625q1.296875 0.09375 1.640625 0.09375q1.96875 0 3.21875 -1.75q1.25 -1.75 2.09375 -3.875l1.46875 -3.53125l-12.5625 -33.125l6.875 0l7.125 21.28125zm36.3125 -4.6875q0 -7.5 4.0625 -12.359375q4.0625 -4.859375 11.03125 -4.859375q7.03125 0 11.109375 4.84375q4.078125 4.84375 4.078125 12.375l0 0.6875q0 7.5625 -4.0625 12.375q-4.0625 4.8125 -11.0625 4.8125q-7.0 0 -11.078125 -4.828125q-4.078125 -4.828125 -4.078125 -12.359375l0 -0.6875zm6.15625 0.6875q0 5.375 2.265625 8.875q2.265625 3.5 6.734375 3.5q4.40625 0 6.6875 -3.5q2.28125 -3.5 2.28125 -8.875l0 -0.6875q0 -5.3125 -2.296875 -8.84375q-2.296875 -3.53125 -6.734375 -3.53125q-4.40625 0 -6.671875 3.53125q-2.265625 3.53125 -2.265625 8.84375l0 0.6875zm34.21875 16.53125l0 -29.25l-5.28125 0l0 -4.5625l5.28125 0l0 -4.28125q0 -5.40625 2.828125 -8.359375q2.828125 -2.953125 7.890625 -2.953125q1.0625 0 2.140625 0.171875q1.078125 0.171875 2.390625 0.484375l-0.75 4.6875q-0.5625 -0.125 -1.359375 -0.21875q-0.796875 -0.09375 -1.671875 -0.09375q-2.6875 0 -4.0 1.609375q-1.3125 1.609375 -1.3125 4.671875l0 4.28125l7.03125 0l0 4.5625l-7.03125 0l0 29.25l-6.15625 0zm64.25 -15.625q0 7.3125 -3.5 11.796875q-3.5 4.484375 -9.65625 4.484375q-3.125 0 -5.484375 -1.046875q-2.359375 -1.046875 -4.015625 -3.140625l0 16.53125l-6.15625 0l0 -46.8125l4.71875 0l0.96875 4.375q1.65625 -2.4375 4.125 -3.71875q2.46875 -1.28125 5.75 -1.28125q6.28125 0 9.765625 4.984375q3.484375 4.984375 3.484375 13.171875l0 0.65625zm-6.15625 -0.65625q0 -5.75 -2.265625 -9.453125q-2.265625 -3.703125 -6.671875 -3.703125q-2.65625 0 -4.53125 1.203125q-1.875 1.203125 -3.03125 3.296875l0 16.34375q1.15625 2.09375 3.03125 3.265625q1.875 1.171875 4.59375 1.171875q4.375 0 6.625 -3.203125q2.25 -3.203125 2.25 -8.265625l0 -0.65625zm34.5 16.28125q-0.3125 -1.53125 -0.484375 -2.703125q-0.171875 -1.171875 -0.203125 -2.359375q-1.71875 2.4375 -4.484375 4.078125q-2.765625 1.640625 -5.953125 1.640625q-5.28125 0 -8.046875 -2.703125q-2.765625 -2.703125 -2.765625 -7.453125q0 -4.84375 3.921875 -7.578125q3.921875 -2.734375 10.640625 -2.734375l6.6875 0l0 -3.34375q0 -2.96875 -1.8125 -4.703125q-1.8125 -1.734375 -5.125 -1.734375q-2.96875 0 -4.828125 1.515625q-1.859375 1.515625 -1.859375 3.640625l-5.875 0l-0.0625 -0.1875q-0.1875 -3.6875 3.484375 -6.75q3.671875 -3.0625 9.484375 -3.0625q5.75 0 9.25 2.921875q3.5 2.921875 3.5 8.421875l0 16.28125q0 1.8125 0.1875 3.5q0.1875 1.6875 0.6875 3.3125l-6.34375 0zm-10.21875 -4.5q3.34375 0 6.03125 -1.71875q2.6875 -1.71875 3.5 -3.9375l0 -5.5l-6.90625 0q-3.71875 0 -5.953125 1.875q-2.234375 1.875 -2.234375 4.40625q0 2.25 1.40625 3.5625q1.40625 1.3125 4.15625 1.3125zm53.4375 -11.125q0 7.3125 -3.5 11.796875q-3.5 4.484375 -9.65625 4.484375q-3.125 0 -5.484375 -1.046875q-2.359375 -1.046875 -4.015625 -3.140625l0 16.53125l-6.15625 0l0 -46.8125l4.71875 0l0.96875 4.375q1.65625 -2.4375 4.125 -3.71875q2.46875 -1.28125 5.75 -1.28125q6.28125 0 9.765625 4.984375q3.484375 4.984375 3.484375 13.171875l0 0.65625zm-6.15625 -0.65625q0 -5.75 -2.265625 -9.453125q-2.265625 -3.703125 -6.671875 -3.703125q-2.65625 0 -4.53125 1.203125q-1.875 1.203125 -3.03125 3.296875l0 16.34375q1.15625 2.09375 3.03125 3.265625q1.875 1.171875 4.59375 1.171875q4.375 0 6.625 -3.203125q2.25 -3.203125 2.25 -8.265625l0 -0.65625zm27.75 16.9375q-7.0625 0 -11.234375 -4.703125q-4.171875 -4.703125 -4.171875 -12.203125l0 -1.375q0 -7.21875 4.296875 -12.015625q4.296875 -4.796875 10.171875 -4.796875q6.84375 0 10.34375 4.125q3.5 4.125 3.5 11.0l0 3.84375l-21.9375 0l-0.09375 0.15625q0.09375 4.875 2.46875 8.015625q2.375 3.140625 6.65625 3.140625q3.125 0 5.484375 -0.890625q2.359375 -0.890625 4.078125 -2.453125l2.40625 4.0q-1.8125 1.78125 -4.78125 2.96875q-2.96875 1.1875 -7.1875 1.1875zm-0.9375 -30.25q-3.09375 0 -5.28125 2.609375q-2.1875 2.609375 -2.6875 6.546875l0.0625 0.15625l15.59375 0l0 -0.8125q0 -3.625 -1.9375 -6.0625q-1.9375 -2.4375 -5.75 -2.4375zm36.75 1.21875l-3.15625 -0.1875q-2.4375 0 -4.109375 1.15625q-1.671875 1.15625 -2.578125 3.25l0 24.15625l-6.15625 0l0 -33.8125l5.5 0l0.59375 4.9375q1.4375 -2.625 3.546875 -4.09375q2.109375 -1.46875 4.859375 -1.46875q0.6875 0 1.3125 0.109375q0.625 0.109375 1.03125 0.234375l-0.84375 5.71875zm42.625 28.375q-0.3125 -1.53125 -0.484375 -2.703125q-0.171875 -1.171875 -0.203125 -2.359375q-1.71875 2.4375 -4.484375 4.078125q-2.765625 1.640625 -5.953125 1.640625q-5.28125 0 -8.046875 -2.703125q-2.765625 -2.703125 -2.765625 -7.453125q0 -4.84375 3.921875 -7.578125q3.921875 -2.734375 10.640625 -2.734375l6.6875 0l0 -3.34375q0 -2.96875 -1.8125 -4.703125q-1.8125 -1.734375 -5.125 -1.734375q-2.96875 0 -4.828125 1.515625q-1.859375 1.515625 -1.859375 3.640625l-5.875 0l-0.0625 -0.1875q-0.1875 -3.6875 3.484375 -6.75q3.671875 -3.0625 9.484375 -3.0625q5.75 0 9.25 2.921875q3.5 2.921875 3.5 8.421875l0 16.28125q0 1.8125 0.1875 3.5q0.1875 1.6875 0.6875 3.3125l-6.34375 0zm-10.21875 -4.5q3.34375 0 6.03125 -1.71875q2.6875 -1.71875 3.5 -3.9375l0 -5.5l-6.90625 0q-3.71875 0 -5.953125 1.875q-2.234375 1.875 -2.234375 4.40625q0 2.25 1.40625 3.5625q1.40625 1.3125 4.15625 1.3125zm30.125 -29.3125l0.4375 5.03125q1.6875 -2.6875 4.234375 -4.171875q2.546875 -1.484375 5.796875 -1.484375q5.46875 0 8.46875 3.203125q3.0 3.203125 3.0 9.890625l0 21.34375l-6.15625 0l0 -21.21875q0 -4.46875 -1.765625 -6.34375q-1.765625 -1.875 -5.390625 -1.875q-2.65625 0 -4.703125 1.28125q-2.046875 1.28125 -3.265625 3.5l0 24.65625l-6.15625 0l0 -33.8125l5.5 0zm29.46875 17.53125q0 -8.15625 3.484375 -13.15625q3.484375 -5.0 9.765625 -5.0q2.96875 0 5.265625 1.09375q2.296875 1.09375 3.921875 3.1875l0 -18.59375l6.15625 0l0 48.75l-5.03125 0l-0.71875 -4.15625q-1.65625 2.375 -4.0625 3.59375q-2.40625 1.21875 -5.59375 1.21875q-6.1875 0 -9.6875 -4.484375q-3.5 -4.484375 -3.5 -11.796875l0 -0.65625zm6.15625 0.65625q0 5.125 2.09375 8.203125q2.09375 3.078125 6.5 3.078125q2.75 0 4.625 -1.25q1.875 -1.25 3.0625 -3.5l0 -15.78125q-1.1875 -2.09375 -3.078125 -3.328125q-1.890625 -1.234375 -4.546875 -1.234375q-4.4375 0 -6.546875 3.65625q-2.109375 3.65625 -2.109375 9.5l0 0.65625z" fill-rule="nonzero"></path><path fill="#a4c2f4" d="m113.07776 695.0726l-6.15625 0l0 -33.8125l6.15625 0l0 33.8125zm0 -42.46875l-6.15625 0l0 -6.28125l6.15625 0l0 6.28125zm14.96875 8.65625l0.4375 5.03125q1.6875 -2.6875 4.234375 -4.171875q2.546875 -1.484375 5.796875 -1.484375q5.46875 0 8.46875 3.203125q3.0 3.203125 3.0 9.890625l0 21.34375l-6.15625 0l0 -21.21875q0 -4.46875 -1.765625 -6.34375q-1.765625 -1.875 -5.390625 -1.875q-2.65625 0 -4.703125 1.28125q-2.046875 1.28125 -3.265625 3.5l0 24.65625l-6.15625 0l0 -33.8125l5.5 0zm41.0625 18.21875l-4.0 0l0 15.59375l-6.15625 0l0 -48.75l6.15625 0l0 28.25l3.9375 0l9.25 -13.3125l7.375 0l-11.5625 15.375l13.21875 18.4375l-7.25 0l-10.96875 -15.59375zm28.0 14.09375l-4.6875 9.5625l-3.65625 0l2.1875 -9.875l0 -5.09375l6.15625 0l0 5.40625zm33.5 -11.03125l1.09375 4.25l0.1875 0l8.3125 -25.53125l6.84375 0l-14.21875 39.0q-1.28125 3.40625 -3.671875 5.9375q-2.390625 2.53125 -6.453125 2.53125q-0.75 0 -1.90625 -0.171875q-1.15625 -0.171875 -1.78125 -0.328125l0.625 -4.84375q-0.1875 -0.03125 1.109375 0.0625q1.296875 0.09375 1.640625 0.09375q1.96875 0 3.21875 -1.75q1.25 -1.75 2.09375 -3.875l1.46875 -3.53125l-12.5625 -33.125l6.875 0l7.125 21.28125zm35.875 13.1875q-7.0625 0 -11.234375 -4.703125q-4.171875 -4.703125 -4.171875 -12.203125l0 -1.375q0 -7.21875 4.296875 -12.015625q4.296875 -4.796875 10.171875 -4.796875q6.84375 0 10.34375 4.125q3.5 4.125 3.5 11.0l0 3.84375l-21.9375 0l-0.09375 0.15625q0.09375 4.875 2.46875 8.015625q2.375 3.140625 6.65625 3.140625q3.125 0 5.484375 -0.890625q2.359375 -0.890625 4.078125 -2.453125l2.40625 4.0q-1.8125 1.78125 -4.78125 2.96875q-2.96875 1.1875 -7.1875 1.1875zm-0.9375 -30.25q-3.09375 0 -5.28125 2.609375q-2.1875 2.609375 -2.6875 6.546875l0.0625 0.15625l15.59375 0l0 -0.8125q0 -3.625 -1.9375 -6.0625q-1.9375 -2.4375 -5.75 -2.4375zm28.875 -12.375l0 8.15625l6.40625 0l0 4.5625l-6.40625 0l0 20.53125q0 2.375 0.984375 3.34375q0.984375 0.96875 2.609375 0.96875q0.53125 0 1.171875 -0.125q0.640625 -0.125 1.140625 -0.3125l0.8125 4.21875q-0.6875 0.5625 -2.015625 0.921875q-1.328125 0.359375 -2.671875 0.359375q-3.75 0 -5.96875 -2.265625q-2.21875 -2.265625 -2.21875 -7.109375l0 -20.53125l-5.375 0l0 -4.5625l5.375 0l0 -8.15625l6.15625 0zm28.46875 24.75q0 -7.5 4.0625 -12.359375q4.0625 -4.859375 11.03125 -4.859375q7.03125 0 11.109375 4.84375q4.078125 4.84375 4.078125 12.375l0 0.6875q0 7.5625 -4.0625 12.375q-4.0625 4.8125 -11.0625 4.8125q-7.0 0 -11.078125 -4.828125q-4.078125 -4.828125 -4.078125 -12.359375l0 -0.6875zm6.15625 0.6875q0 5.375 2.265625 8.875q2.265625 3.5 6.734375 3.5q4.40625 0 6.6875 -3.5q2.28125 -3.5 2.28125 -8.875l0 -0.6875q0 -5.3125 -2.296875 -8.84375q-2.296875 -3.53125 -6.734375 -3.53125q-4.40625 0 -6.671875 3.53125q-2.265625 3.53125 -2.265625 8.84375l0 0.6875zm60.46875 0.90625q0 7.3125 -3.5 11.796875q-3.5 4.484375 -9.65625 4.484375q-3.125 0 -5.484375 -1.046875q-2.359375 -1.046875 -4.015625 -3.140625l0 16.53125l-6.15625 0l0 -46.8125l4.71875 0l0.96875 4.375q1.65625 -2.4375 4.125 -3.71875q2.46875 -1.28125 5.75 -1.28125q6.28125 0 9.765625 4.984375q3.484375 4.984375 3.484375 13.171875l0 0.65625zm-6.15625 -0.65625q0 -5.75 -2.265625 -9.453125q-2.265625 -3.703125 -6.671875 -3.703125q-2.65625 0 -4.53125 1.203125q-1.875 1.203125 -3.03125 3.296875l0 16.34375q1.15625 2.09375 3.03125 3.265625q1.875 1.171875 4.59375 1.171875q4.375 0 6.625 -3.203125q2.25 -3.203125 2.25 -8.265625l0 -0.65625zm27.75 16.9375q-7.0625 0 -11.234375 -4.703125q-4.171875 -4.703125 -4.171875 -12.203125l0 -1.375q0 -7.21875 4.296875 -12.015625q4.296875 -4.796875 10.171875 -4.796875q6.84375 0 10.34375 4.125q3.5 4.125 3.5 11.0l0 3.84375l-21.9375 0l-0.09375 0.15625q0.09375 4.875 2.46875 8.015625q2.375 3.140625 6.65625 3.140625q3.125 0 5.484375 -0.890625q2.359375 -0.890625 4.078125 -2.453125l2.40625 4.0q-1.8125 1.78125 -4.78125 2.96875q-2.96875 1.1875 -7.1875 1.1875zm-0.9375 -30.25q-3.09375 0 -5.28125 2.609375q-2.1875 2.609375 -2.6875 6.546875l0.0625 0.15625l15.59375 0l0 -0.8125q0 -3.625 -1.9375 -6.0625q-1.9375 -2.4375 -5.75 -2.4375zm26.25 -4.21875l0.4375 5.03125q1.6875 -2.6875 4.234375 -4.171875q2.546875 -1.484375 5.796875 -1.484375q5.46875 0 8.46875 3.203125q3.0 3.203125 3.0 9.890625l0 21.34375l-6.15625 0l0 -21.21875q0 -4.46875 -1.765625 -6.34375q-1.765625 -1.875 -5.390625 -1.875q-2.65625 0 -4.703125 1.28125q-2.046875 1.28125 -3.265625 3.5l0 24.65625l-6.15625 0l0 -33.8125l5.5 0zm54.90625 -8.15625l0 8.15625l6.40625 0l0 4.5625l-6.40625 0l0 20.53125q0 2.375 0.984375 3.34375q0.984375 0.96875 2.609375 0.96875q0.53125 0 1.171875 -0.125q0.640625 -0.125 1.140625 -0.3125l0.8125 4.21875q-0.6875 0.5625 -2.015625 0.921875q-1.328125 0.359375 -2.671875 0.359375q-3.75 0 -5.96875 -2.265625q-2.21875 -2.265625 -2.21875 -7.109375l0 -20.53125l-5.375 0l0 -4.5625l5.375 0l0 -8.15625l6.15625 0zm12.5625 24.75q0 -7.5 4.0625 -12.359375q4.0625 -4.859375 11.03125 -4.859375q7.03125 0 11.109375 4.84375q4.078125 4.84375 4.078125 12.375l0 0.6875q0 7.5625 -4.0625 12.375q-4.0625 4.8125 -11.0625 4.8125q-7.0 0 -11.078125 -4.828125q-4.078125 -4.828125 -4.078125 -12.359375l0 -0.6875zm6.15625 0.6875q0 5.375 2.265625 8.875q2.265625 3.5 6.734375 3.5q4.40625 0 6.6875 -3.5q2.28125 -3.5 2.28125 -8.875l0 -0.6875q0 -5.3125 -2.296875 -8.84375q-2.296875 -3.53125 -6.734375 -3.53125q-4.40625 0 -6.671875 3.53125q-2.265625 3.53125 -2.265625 8.84375l0 0.6875zm54.21875 16.53125l-6.15625 0l0 -33.8125l6.15625 0l0 33.8125zm0 -42.46875l-6.15625 0l0 -6.28125l6.15625 0l0 6.28125zm14.96875 8.65625l0.4375 4.4375q1.65625 -2.40625 4.203125 -3.734375q2.546875 -1.328125 5.921875 -1.328125q3.375 0 5.796875 1.5625q2.421875 1.5625 3.640625 4.6875q1.59375 -2.875 4.21875 -4.5625q2.625 -1.6875 6.125 -1.6875q5.15625 0 8.15625 3.546875q3.0 3.546875 3.0 10.671875l0 20.21875l-6.15625 0l0 -20.28125q0 -5.0 -1.71875 -7.078125q-1.71875 -2.078125 -5.125 -2.078125q-3.15625 0 -5.109375 2.1875q-1.953125 2.1875 -2.296875 5.53125l0 0.25l0 21.46875l-6.1875 0l0 -20.28125q0 -4.75 -1.765625 -6.953125q-1.765625 -2.203125 -5.078125 -2.203125q-2.8125 0 -4.625 1.15625q-1.8125 1.15625 -2.78125 3.25l0 25.03125l-6.15625 0l0 -33.8125l5.5 0zm71.21875 33.8125q-0.3125 -1.53125 -0.484375 -2.703125q-0.171875 -1.171875 -0.203125 -2.359375q-1.71875 2.4375 -4.484375 4.078125q-2.765625 1.640625 -5.953125 1.640625q-5.28125 0 -8.046875 -2.703125q-2.765625 -2.703125 -2.765625 -7.453125q0 -4.84375 3.921875 -7.578125q3.921875 -2.734375 10.640625 -2.734375l6.6875 0l0 -3.34375q0 -2.96875 -1.8125 -4.703125q-1.8125 -1.734375 -5.125 -1.734375q-2.96875 0 -4.828125 1.515625q-1.859375 1.515625 -1.859375 3.640625l-5.875 0l-0.0625 -0.1875q-0.1875 -3.6875 3.484375 -6.75q3.671875 -3.0625 9.484375 -3.0625q5.75 0 9.25 2.921875q3.5 2.921875 3.5 8.421875l0 16.28125q0 1.8125 0.1875 3.5q0.1875 1.6875 0.6875 3.3125l-6.34375 0zm-10.21875 -4.5q3.34375 0 6.03125 -1.71875q2.6875 -1.71875 3.5 -3.9375l0 -5.5l-6.90625 0q-3.71875 0 -5.953125 1.875q-2.234375 1.875 -2.234375 4.40625q0 2.25 1.40625 3.5625q1.40625 1.3125 4.15625 1.3125zm23.28125 -11.78125q0 -8.15625 3.5625 -13.15625q3.5625 -5.0 9.84375 -5.0q3.21875 0 5.65625 1.296875q2.4375 1.296875 4.0625 3.734375l0.75 -4.40625l4.90625 0l0 34.0q0 6.5 -3.78125 9.984375q-3.78125 3.484375 -10.90625 3.484375q-2.4375 0 -5.265625 -0.671875q-2.828125 -0.671875 -4.984375 -1.828125l1.5625 -4.78125q1.65625 0.9375 4.0 1.515625q2.34375 0.578125 4.625 0.578125q4.5 0 6.546875 -2.046875q2.046875 -2.046875 2.046875 -6.234375l0 -3.8125q-1.65625 2.125 -3.96875 3.203125q-2.3125 1.078125 -5.3125 1.078125q-6.21875 0 -9.78125 -4.5q-3.5625 -4.5 -3.5625 -11.78125l0 -0.65625zm6.15625 0.65625q0 5.09375 2.15625 8.1875q2.15625 3.09375 6.5625 3.09375q2.78125 0 4.65625 -1.265625q1.875 -1.265625 3.09375 -3.578125l0 -15.5625q-1.1875 -2.15625 -3.09375 -3.421875q-1.90625 -1.265625 -4.59375 -1.265625q-4.40625 0 -6.59375 3.6875q-2.1875 3.6875 -2.1875 9.46875l0 0.65625zm38.21875 15.625l-6.15625 0l0 -33.8125l6.15625 0l0 33.8125zm0 -42.46875l-6.15625 0l0 -6.28125l6.15625 0l0 6.28125zm14.96875 8.65625l0.4375 5.03125q1.6875 -2.6875 4.234375 -4.171875q2.546875 -1.484375 5.796875 -1.484375q5.46875 0 8.46875 3.203125q3.0 3.203125 3.0 9.890625l0 21.34375l-6.15625 0l0 -21.21875q0 -4.46875 -1.765625 -6.34375q-1.765625 -1.875 -5.390625 -1.875q-2.65625 0 -4.703125 1.28125q-2.046875 1.28125 -3.265625 3.5l0 24.65625l-6.15625 0l0 -33.8125l5.5 0zm51.65625 33.8125q-0.3125 -1.53125 -0.484375 -2.703125q-0.171875 -1.171875 -0.203125 -2.359375q-1.71875 2.4375 -4.484375 4.078125q-2.765625 1.640625 -5.953125 1.640625q-5.28125 0 -8.046875 -2.703125q-2.765625 -2.703125 -2.765625 -7.453125q0 -4.84375 3.921875 -7.578125q3.921875 -2.734375 10.640625 -2.734375l6.6875 0l0 -3.34375q0 -2.96875 -1.8125 -4.703125q-1.8125 -1.734375 -5.125 -1.734375q-2.96875 0 -4.828125 1.515625q-1.859375 1.515625 -1.859375 3.640625l-5.875 0l-0.0625 -0.1875q-0.1875 -3.6875 3.484375 -6.75q3.671875 -3.0625 9.484375 -3.0625q5.75 0 9.25 2.921875q3.5 2.921875 3.5 8.421875l0 16.28125q0 1.8125 0.1875 3.5q0.1875 1.6875 0.6875 3.3125l-6.34375 0zm-10.21875 -4.5q3.34375 0 6.03125 -1.71875q2.6875 -1.71875 3.5 -3.9375l0 -5.5l-6.90625 0q-3.71875 0 -5.953125 1.875q-2.234375 1.875 -2.234375 4.40625q0 2.25 1.40625 3.5625q1.40625 1.3125 4.15625 1.3125zm32.75 -37.46875l0 8.15625l6.40625 0l0 4.5625l-6.40625 0l0 20.53125q0 2.375 0.984375 3.34375q0.984375 0.96875 2.609375 0.96875q0.53125 0 1.171875 -0.125q0.640625 -0.125 1.140625 -0.3125l0.8125 4.21875q-0.6875 0.5625 -2.015625 0.921875q-1.328125 0.359375 -2.671875 0.359375q-3.75 0 -5.96875 -2.265625q-2.21875 -2.265625 -2.21875 -7.109375l0 -20.53125l-5.375 0l0 -4.5625l5.375 0l0 -8.15625l6.15625 0zm20.65625 41.96875l-6.15625 0l0 -33.8125l6.15625 0l0 33.8125zm0 -42.46875l-6.15625 0l0 -6.28125l6.15625 0l0 6.28125zm8.03125 25.25q0 -7.5 4.0625 -12.359375q4.0625 -4.859375 11.03125 -4.859375q7.03125 0 11.109375 4.84375q4.078125 4.84375 4.078125 12.375l0 0.6875q0 7.5625 -4.0625 12.375q-4.0625 4.8125 -11.0625 4.8125q-7.0 0 -11.078125 -4.828125q-4.078125 -4.828125 -4.078125 -12.359375l0 -0.6875zm6.15625 0.6875q0 5.375 2.265625 8.875q2.265625 3.5 6.734375 3.5q4.40625 0 6.6875 -3.5q2.28125 -3.5 2.28125 -8.875l0 -0.6875q0 -5.3125 -2.296875 -8.84375q-2.296875 -3.53125 -6.734375 -3.53125q-4.40625 0 -6.671875 3.53125q-2.265625 3.53125 -2.265625 8.84375l0 0.6875zm37.15625 -17.28125l0.4375 5.03125q1.6875 -2.6875 4.234375 -4.171875q2.546875 -1.484375 5.796875 -1.484375q5.46875 0 8.46875 3.203125q3.0 3.203125 3.0 9.890625l0 21.34375l-6.15625 0l0 -21.21875q0 -4.46875 -1.765625 -6.34375q-1.765625 -1.875 -5.390625 -1.875q-2.65625 0 -4.703125 1.28125q-2.046875 1.28125 -3.265625 3.5l0 24.65625l-6.15625 0l0 -33.8125l5.5 0zm67.5625 33.8125q-0.3125 -1.53125 -0.484375 -2.703125q-0.171875 -1.171875 -0.203125 -2.359375q-1.71875 2.4375 -4.484375 4.078125q-2.765625 1.640625 -5.953125 1.640625q-5.28125 0 -8.046875 -2.703125q-2.765625 -2.703125 -2.765625 -7.453125q0 -4.84375 3.921875 -7.578125q3.921875 -2.734375 10.640625 -2.734375l6.6875 0l0 -3.34375q0 -2.96875 -1.8125 -4.703125q-1.8125 -1.734375 -5.125 -1.734375q-2.96875 0 -4.828125 1.515625q-1.859375 1.515625 -1.859375 3.640625l-5.875 0l-0.0625 -0.1875q-0.1875 -3.6875 3.484375 -6.75q3.671875 -3.0625 9.484375 -3.0625q5.75 0 9.25 2.921875q3.5 2.921875 3.5 8.421875l0 16.28125q0 1.8125 0.1875 3.5q0.1875 1.6875 0.6875 3.3125l-6.34375 0zm-10.21875 -4.5q3.34375 0 6.03125 -1.71875q2.6875 -1.71875 3.5 -3.9375l0 -5.5l-6.90625 0q-3.71875 0 -5.953125 1.875q-2.234375 1.875 -2.234375 4.40625q0 2.25 1.40625 3.5625q1.40625 1.3125 4.15625 1.3125zm30.125 -29.3125l0.4375 5.03125q1.6875 -2.6875 4.234375 -4.171875q2.546875 -1.484375 5.796875 -1.484375q5.46875 0 8.46875 3.203125q3.0 3.203125 3.0 9.890625l0 21.34375l-6.15625 0l0 -21.21875q0 -4.46875 -1.765625 -6.34375q-1.765625 -1.875 -5.390625 -1.875q-2.65625 0 -4.703125 1.28125q-2.046875 1.28125 -3.265625 3.5l0 24.65625l-6.15625 0l0 -33.8125l5.5 0zm29.46875 17.53125q0 -8.15625 3.484375 -13.15625q3.484375 -5.0 9.765625 -5.0q2.96875 0 5.265625 1.09375q2.296875 1.09375 3.921875 3.1875l0 -18.59375l6.15625 0l0 48.75l-5.03125 0l-0.71875 -4.15625q-1.65625 2.375 -4.0625 3.59375q-2.40625 1.21875 -5.59375 1.21875q-6.1875 0 -9.6875 -4.484375q-3.5 -4.484375 -3.5 -11.796875l0 -0.65625zm6.15625 0.65625q0 5.125 2.09375 8.203125q2.09375 3.078125 6.5 3.078125q2.75 0 4.625 -1.25q1.875 -1.25 3.0625 -3.5l0 -15.78125q-1.1875 -2.09375 -3.078125 -3.328125q-1.890625 -1.234375 -4.546875 -1.234375q-4.4375 0 -6.546875 3.65625q-2.109375 3.65625 -2.109375 9.5l0 0.65625zm53.03125 -18.1875l0.4375 4.4375q1.65625 -2.40625 4.203125 -3.734375q2.546875 -1.328125 5.921875 -1.328125q3.375 0 5.796875 1.5625q2.421875 1.5625 3.640625 4.6875q1.59375 -2.875 4.21875 -4.5625q2.625 -1.6875 6.125 -1.6875q5.15625 0 8.15625 3.546875q3.0 3.546875 3.0 10.671875l0 20.21875l-6.15625 0l0 -20.28125q0 -5.0 -1.71875 -7.078125q-1.71875 -2.078125 -5.125 -2.078125q-3.15625 0 -5.109375 2.1875q-1.953125 2.1875 -2.296875 5.53125l0 0.25l0 21.46875l-6.1875 0l0 -20.28125q0 -4.75 -1.765625 -6.953125q-1.765625 -2.203125 -5.078125 -2.203125q-2.8125 0 -4.625 1.15625q-1.8125 1.15625 -2.78125 3.25l0 25.03125l-6.15625 0l0 -33.8125l5.5 0zm71.21875 33.8125q-0.3125 -1.53125 -0.484375 -2.703125q-0.171875 -1.171875 -0.203125 -2.359375q-1.71875 2.4375 -4.484375 4.078125q-2.765625 1.640625 -5.953125 1.640625q-5.28125 0 -8.046875 -2.703125q-2.765625 -2.703125 -2.765625 -7.453125q0 -4.84375 3.921875 -7.578125q3.921875 -2.734375 10.640625 -2.734375l6.6875 0l0 -3.34375q0 -2.96875 -1.8125 -4.703125q-1.8125 -1.734375 -5.125 -1.734375q-2.96875 0 -4.828125 1.515625q-1.859375 1.515625 -1.859375 3.640625l-5.875 0l-0.0625 -0.1875q-0.1875 -3.6875 3.484375 -6.75q3.671875 -3.0625 9.484375 -3.0625q5.75 0 9.25 2.921875q3.5 2.921875 3.5 8.421875l0 16.28125q0 1.8125 0.1875 3.5q0.1875 1.6875 0.6875 3.3125l-6.34375 0zm-10.21875 -4.5q3.34375 0 6.03125 -1.71875q2.6875 -1.71875 3.5 -3.9375l0 -5.5l-6.90625 0q-3.71875 0 -5.953125 1.875q-2.234375 1.875 -2.234375 4.40625q0 2.25 1.40625 3.5625q1.40625 1.3125 4.15625 1.3125zm23.28125 -11.78125q0 -8.15625 3.5625 -13.15625q3.5625 -5.0 9.84375 -5.0q3.21875 0 5.65625 1.296875q2.4375 1.296875 4.0625 3.734375l0.75 -4.40625l4.90625 0l0 34.0q0 6.5 -3.78125 9.984375q-3.78125 3.484375 -10.90625 3.484375q-2.4375 0 -5.265625 -0.671875q-2.828125 -0.671875 -4.984375 -1.828125l1.5625 -4.78125q1.65625 0.9375 4.0 1.515625q2.34375 0.578125 4.625 0.578125q4.5 0 6.546875 -2.046875q2.046875 -2.046875 2.046875 -6.234375l0 -3.8125q-1.65625 2.125 -3.96875 3.203125q-2.3125 1.078125 -5.3125 1.078125q-6.21875 0 -9.78125 -4.5q-3.5625 -4.5 -3.5625 -11.78125l0 -0.65625zm6.15625 0.65625q0 5.09375 2.15625 8.1875q2.15625 3.09375 6.5625 3.09375q2.78125 0 4.65625 -1.265625q1.875 -1.265625 3.09375 -3.578125l0 -15.5625q-1.1875 -2.15625 -3.09375 -3.421875q-1.90625 -1.265625 -4.59375 -1.265625q-4.40625 0 -6.59375 3.6875q-2.1875 3.6875 -2.1875 9.46875l0 0.65625zm38.21875 15.625l-6.15625 0l0 -33.8125l6.15625 0l0 33.8125zm0 -42.46875l-6.15625 0l0 -6.28125l6.15625 0l0 6.28125zm23.21875 38.3125q3.0625 0 5.390625 -1.890625q2.328125 -1.890625 2.328125 -4.640625l5.53125 0l0.0625 0.1875q0.15625 4.375 -3.890625 7.765625q-4.046875 3.390625 -9.421875 3.390625q-7.375 0 -11.28125 -4.8125q-3.90625 -4.8125 -3.90625 -12.09375l0 -1.3125q0 -7.21875 3.921875 -12.046875q3.921875 -4.828125 11.265625 -4.828125q5.9375 0 9.703125 3.5q3.765625 3.5 3.640625 8.59375l-0.0625 0.1875l-5.5625 0q0 -3.09375 -2.1875 -5.265625q-2.1875 -2.171875 -5.53125 -2.171875q-4.84375 0 -6.921875 3.484375q-2.078125 3.484375 -2.078125 8.546875l0 1.3125q0 5.1875 2.0625 8.640625q2.0625 3.453125 6.9375 3.453125zm26.9375 4.15625l-6.15625 0l0 -6.3125l6.15625 0l0 6.3125z" fill-rule="nonzero"></path><path fill="#000000" fill-opacity="0.0" d="m87.73524 41.60294l1307.7166 0l0 60.535435l-1307.7166 0z" fill-rule="nonzero"></path><path fill="#ffffff" d="m115.71961 81.47065l-2.609375 0l0 -16.671875l-3.921875 0.0625l0 -1.8749962l6.53125 -0.71875l0 19.203121zm10.741531 0l-2.59375 0l0 -2.65625l2.59375 0l0 2.65625z" fill-rule="nonzero"></path></g></svg>

